<?xml version="1.0" encoding="UTF-8" standalone="no"?>
<svg
   xmlns:dc="http://purl.org/dc/elements/1.1/"
   xmlns:cc="http://creativecommons.org/ns#"
   xmlns:rdf="http://www.w3.org/1999/02/22-rdf-syntax-ns#"
   xmlns:svg="http://www.w3.org/2000/svg"
   xmlns="http://www.w3.org/2000/svg"
   id="svg4"
   xml:space="preserve"
   viewBox="0 0 1024 768"
   y="0px"
   x="0px"
   version="1.1"><metadata
     id="metadata10"><rdf:RDF><cc:Work
         rdf:about=""><dc:format>image/svg+xml</dc:format><dc:type
           rdf:resource="http://purl.org/dc/dcmitype/StillImage" /></cc:Work></rdf:RDF></metadata><defs
     id="defs8" /><g
     transform="matrix(3.7895,0,0,3.7895,-1523.7,-1071)"
     id="logo-group"><path
       style="fill:#239bc4;stroke-width:0.75"
       d="m 538.17,315.79 c -1.0091,-0.008 -1.9941,-0.009 -2.1892,-8.4e-4 -0.19474,0.008 -0.79522,0.0342 -1.3344,0.0588 -0.53876,0.0246 -1.4678,0.0826 -2.0642,0.12844 -0.59631,0.0459 -1.4408,0.12051 -1.8765,0.16596 -0.43576,0.0455 -1.3082,0.14846 -1.939,0.22893 -0.6305,0.0805 -1.6346,0.22227 -2.231,0.31484 -0.59631,0.093 -1.4478,0.2331 -1.8923,0.31192 -0.44453,0.0788 -1.12,0.21016 -1.5012,0.2919 -0.38114,0.0813 -1.0308,0.23226 -1.4437,0.33485 -0.41283,0.10216 -0.99457,0.2527 -1.2927,0.33402 -0.29815,0.0813 -0.88905,0.2502 -1.3136,0.37572 -0.42409,0.12552 -1.2406,0.37905 -1.814,0.56378 -0.57337,0.18473 -1.6242,0.53876 -2.3352,0.7869 -0.71099,0.24812 -2.2122,0.78315 -3.336,1.1889 -1.1238,0.40574 -2.5779,0.92535 -3.2318,1.1542 -0.65344,0.22935 -1.5354,0.53084 -1.9599,0.67012 -0.42409,0.13927 -0.77813,0.25812 -0.78607,0.26437 -0.008,0.006 0.0834,0.55295 0.2039,1.2155 l 0.21935,1.2047 0.81735,0.3899 c 0.44953,0.21475 0.97703,0.45912 1.1718,0.54376 0.19516,0.0847 1.0021,0.38907 1.7931,0.6768 0.79103,0.28773 2.0204,0.73851 2.7314,1.0024 0.71099,0.26354 2.8598,1.0646 4.7746,1.7798 1.9153,0.71557 4.1671,1.5542 5.004,1.8636 0.8373,0.30983 2.3761,0.8724 3.4194,1.2506 1.0438,0.37821 2.6763,0.96037 3.6279,1.2932 0.95198,0.33318 2.5375,0.87442 3.5236,1.2026 0.98618,0.32818 2.4219,0.79358 3.19,1.0346 0.76852,0.24144 1.7722,0.55127 2.231,0.6893 0.4587,0.13761 1.168,0.34528 1.5766,0.46079 0.40824,0.11593 1.1213,0.2944 1.5846,0.3974 0.46287,0.10259 1.1797,0.24269 1.5926,0.3115 0.41283,0.0688 1.0508,0.16305 1.4178,0.20933 0.36696,0.0467 0.97703,0.11259 1.3552,0.14637 0.37864,0.0342 1.1008,0.0838 1.6054,0.11051 0.58255,0.0308 1.5642,0.0396 2.6896,0.0242 0.97493,-0.0133 2.035,-0.0438 2.356,-0.068 0.32109,-0.0242 0.90277,-0.0726 1.2927,-0.10759 0.38989,-0.035 1.0713,-0.11008 1.5137,-0.16722 0.44286,-0.0567 1.015,-0.14886 1.2718,-0.20433 0.25688,-0.0559 0.69222,-0.16971 0.96743,-0.25311 0.27522,-0.0838 0.70682,-0.23644 0.9591,-0.33903 0.25228,-0.10299 0.67095,-0.29857 0.9303,-0.43451 0.25979,-0.13552 0.65385,-0.36445 0.8757,-0.50791 0.22225,-0.14344 0.59172,-0.41032 0.8211,-0.59256 0.22935,-0.18264 0.58922,-0.50623 0.79935,-0.71974 0.21058,-0.21309 0.49999,-0.53293 0.64343,-0.71057 0.14345,-0.17764 0.3899,-0.52041 0.54752,-0.76102 0.15763,-0.24103 0.39741,-0.66303 0.53251,-0.93825 0.13553,-0.27522 0.30399,-0.6572 0.37405,-0.849 0.0701,-0.19182 0.17305,-0.51083 0.22852,-0.7089 0.055,-0.19808 0.13803,-0.55753 0.18348,-0.79815 0.0459,-0.24103 0.10591,-0.6622 0.13386,-0.93615 0.0313,-0.31067 0.0417,-0.7902 0.0271,-1.2718 -0.0129,-0.42534 -0.0538,-0.95198 -0.0905,-1.1697 -0.0367,-0.21809 -0.12051,-0.60257 -0.1864,-0.8553 -0.0659,-0.25271 -0.19765,-0.65594 -0.29273,-0.89655 -0.0955,-0.24061 -0.25812,-0.59714 -0.36154,-0.79185 -0.10384,-0.19516 -0.30691,-0.53293 -0.45203,-0.7506 -0.14511,-0.21809 -0.44494,-0.60716 -0.66636,-0.86483 -0.22185,-0.2577 -0.56754,-0.61549 -0.76815,-0.7956 -0.20057,-0.18014 -0.51083,-0.44327 -0.6893,-0.58505 -0.17806,-0.14136 -0.5617,-0.41491 -0.85237,-0.60799 -0.29065,-0.19265 -0.77228,-0.48663 -1.0704,-0.65302 -0.29816,-0.16638 -0.7677,-0.40991 -1.0433,-0.54127 -0.27564,-0.13135 -0.73266,-0.33526 -1.0158,-0.4537 -0.28272,-0.11801 -0.789,-0.319 -1.1246,-0.44702 -0.33611,-0.1276 -0.90158,-0.33402 -1.2572,-0.45912 -0.35528,-0.12468 -0.96532,-0.32734 -1.3552,-0.44994 -0.38989,-0.12301 -1.1126,-0.33526 -1.6054,-0.47246 -0.49289,-0.13678 -1.3002,-0.34403 -1.7931,-0.46037 -0.49289,-0.11592 -1.2344,-0.27855 -1.6472,-0.3607 -0.41283,-0.0826 -1.1446,-0.21518 -1.6263,-0.29524 -0.48163,-0.0796 -1.3823,-0.20933 -2.0016,-0.28815 -0.61924,-0.0784 -1.5854,-0.18097 -2.1476,-0.22768 -0.56169,-0.0467 -1.3686,-0.10425 -1.7931,-0.12802 -0.42408,-0.0233 -1.5971,-0.0492 -2.6062,-0.0575 z m 37.78,13.631 c -0.20641,-0.009 -0.45036,-8.2e-4 -0.5421,0.0192 -0.0917,0.02 -0.26229,0.0726 -0.37905,0.11676 -0.11718,0.0446 -0.30149,0.1422 -0.41033,0.21684 -0.10842,0.0746 -0.29941,0.23977 -0.42451,0.36654 -0.1251,0.12718 -0.33026,0.38572 -0.45578,0.57463 -0.12594,0.18931 -0.32025,0.53835 -0.43159,0.77602 -0.11135,0.23769 -0.3286,0.789 -0.48248,1.2248 -0.15387,0.43577 -0.37154,1.0221 -0.48372,1.3027 -0.11217,0.28064 -0.32067,0.76642 -0.46287,1.0788 -0.14261,0.31275 -0.43951,0.89947 -0.6601,1.3036 -0.22018,0.40449 -0.56379,0.99413 -0.76268,1.3106 -0.19932,0.3165 -0.53793,0.82312 -0.75307,1.1259 -0.21518,0.30274 -0.55628,0.75682 -0.7581,1.0091 -0.20225,0.25229 -0.5567,0.67429 -0.78773,0.93825 -0.23101,0.26354 -0.70139,0.76148 -1.0458,1.1055 -0.34444,0.34445 -0.90405,0.86483 -1.2443,1.1564 -0.34027,0.29148 -0.8469,0.7014 -1.1259,0.91073 -0.27897,0.20975 -0.79815,0.57421 -1.1538,0.80985 -0.35528,0.23602 -0.89948,0.57462 -1.2093,0.75307 -0.30983,0.17806 -0.88193,0.4783 -1.2718,0.6672 -0.38989,0.18848 -1.0187,0.46538 -1.397,0.61466 -0.37822,0.14928 -0.95745,0.35779 -1.2865,0.46329 -0.32943,0.1055 -0.90157,0.26605 -1.2718,0.35737 -0.37029,0.0913 -0.9453,0.21224 -1.2781,0.26938 -0.33235,0.0571 -0.87653,0.13678 -1.2093,0.17681 -0.44994,0.0538 -0.93577,0.073 -1.8974,0.0742 -0.98415,0.001 -1.452,-0.0163 -1.9599,-0.0742 -0.36696,-0.0413 -1.1176,-0.1397 -1.668,-0.2181 -0.55044,-0.0784 -1.3657,-0.20892 -1.8115,-0.29023 -0.44577,-0.0813 -1.2622,-0.24311 -1.8139,-0.35946 -0.5517,-0.11592 -1.5191,-0.33943 -2.15,-0.49665 -0.6305,-0.15679 -1.4657,-0.37196 -1.8556,-0.47788 -0.38989,-0.10592 -1.0371,-0.28648 -1.4386,-0.40157 -0.40115,-0.11468 -1.0112,-0.29316 -1.3552,-0.39657 -0.34402,-0.103 -0.9633,-0.29107 -1.3761,-0.41783 -0.41283,-0.12677 -1.3323,-0.4145 -2.0433,-0.6401 -0.71098,-0.22518 -1.9682,-0.6255 -2.7939,-0.88905 -0.82725,-0.2655 -1.8308,-0.58425 -2.2328,-0.71175 -0.4005,-0.12675 -1.593,-0.49275 -2.6475,-0.8145 -1.0552,-0.321 -2.406,-0.73575 -3.0022,-0.9225 -0.59625,-0.18675 -1.9005,-0.6015 -2.8988,-0.9225 -0.9975,-0.32025 -5.0978,-1.6792 -9.111,-3.0195 l -7.2975,-2.4365 -1.0988,0.10299 c -0.60423,0.0567 -1.477,0.15095 -1.939,0.20933 -0.46203,0.0584 -1.206,0.16305 -1.6534,0.23269 -0.44702,0.0701 -1.226,0.20892 -1.7306,0.30858 -0.50457,0.10008 -1.2681,0.26688 -1.6968,0.37071 -0.42868,0.10383 -1.1042,0.28231 -1.5012,0.39657 -0.39698,0.11384 -1.0033,0.30066 -1.3473,0.4145 -0.34403,0.11384 -0.89738,0.31024 -1.2302,0.4366 -0.33235,0.12593 -0.87653,0.34527 -1.2093,0.48705 -0.33235,0.14178 -0.94245,0.42451 -1.3552,0.62884 -0.41283,0.20433 -1.0508,0.5421 -1.4178,0.75105 -0.36696,0.20892 -0.98618,0.59131 -1.3761,0.84982 -0.3899,0.25854 -0.9057,0.61633 -1.1468,0.79561 -0.24061,0.17931 -0.58797,0.4466 -0.77145,0.59422 -0.18348,0.14762 -0.58714,0.48956 -0.89655,0.75975 -0.30941,0.27063 -0.9387,0.87405 -1.3982,1.3406 -0.45953,0.46661 -1.005,1.0454 -1.2122,1.2865 -0.20725,0.24061 -0.54293,0.64385 -0.74601,0.89527 -0.20308,0.25187 -0.55127,0.70223 -0.7731,1.0008 -0.22184,0.29898 -0.59256,0.81524 -0.82313,1.148 -0.2306,0.33235 -0.64301,0.9612 -0.91612,1.397 -0.27356,0.43577 -0.67637,1.1021 -0.89528,1.4804 -0.21892,0.37822 -0.57629,1.0162 -0.7944,1.4178 -0.21767,0.40115 -0.66052,1.2585 -0.98325,1.9045 -0.32317,0.64634 -0.77355,1.575 -1.0008,2.0641 -0.22726,0.48915 -0.55503,1.2098 -0.72849,1.6009 -0.17348,0.39156 -0.37488,0.8607 -0.44828,1.0425 -0.073,0.18223 -0.21601,0.57504 -0.31775,0.87323 -0.10175,0.29815 -0.23978,0.7581 -0.3065,1.0216 -0.0663,0.26355 -0.15054,0.65761 -0.18639,0.8757 -0.0359,0.21768 -0.0767,0.623 -0.0909,0.90031 -0.0159,0.31191 -0.005,0.66094 0.0267,0.91694 0.0284,0.22727 0.0972,0.56879 0.1522,0.75893 0.055,0.18974 0.17306,0.4904 0.26188,0.6672 0.0892,0.17723 0.24937,0.43868 0.35653,0.58088 0.10717,0.14262 0.32026,0.37405 0.47288,0.51417 0.15262,0.13969 0.40032,0.33568 0.55002,0.43493 0.1497,0.0993 0.42492,0.25728 0.61132,0.35111 0.18682,0.0938 0.50583,0.23394 0.7089,0.31109 0.2035,0.0776 0.59506,0.19849 0.8703,0.26938 0.27522,0.0705 0.70682,0.16555 0.9591,0.211 0.25229,0.0455 0.61842,0.103 0.81315,0.12844 0.19516,0.025 0.56087,0.0642 0.81315,0.0872 0.25229,0.0225 1.0404,0.053 1.7514,0.0671 0.80693,0.0163 2.5058,-0.002 4.5202,-0.0475 2.2451,-0.0513 3.901,-0.0663 5.4418,-0.05 1.2176,0.0129 2.4866,0.0434 2.819,0.0675 0.33277,0.0242 0.91448,0.0734 1.2927,0.10884 0.37864,0.0354 1.0112,0.11093 1.4066,0.16722 0.39489,0.0567 0.97664,0.15054 1.2927,0.2085 0.31567,0.058 0.88403,0.18181 1.2622,0.2748 0.37864,0.0926 1.0446,0.2869 1.4804,0.43118 0.43577,0.14428 1.0838,0.38447 1.4399,0.53376 0.35611,0.14928 1.163,0.49664 1.7931,0.77227 0.63009,0.27522 1.6805,0.74393 2.3339,1.0412 0.65386,0.2969 1.7422,0.80025 2.4186,1.1184 0.67638,0.31776 2.3469,1.1355 3.7113,1.8169 1.3644,0.68138 3.0912,1.5608 3.8364,1.9545 0.7456,0.39365 1.9745,1.0542 2.7314,1.4678 0.75683,0.41366 1.9578,1.0817 2.6688,1.4836 0.71099,0.40241 1.7902,1.0217 2.3978,1.3761 0.60799,0.35486 1.5462,0.90824 2.085,1.2302 0.53919,0.32151 1.6367,0.98789 2.4394,1.4808 0.80273,0.49289 2.0696,1.2844 2.8148,1.7589 0.7456,0.47413 1.8431,1.1814 2.4394,1.5708 0.59631,0.38989 1.8256,1.1964 2.7314,1.7926 0.90615,0.59588 1.9946,1.2994 2.4186,1.5638 0.42451,0.26395 1.1046,0.68012 1.5121,0.9249 0.40699,0.24478 1.1964,0.70515 1.7543,1.0233 0.55753,0.31817 1.4066,0.7902 1.8865,1.0487 0.47997,0.25895 1.4641,0.76643 2.1863,1.128 0.72266,0.36154 1.6997,0.83565 2.1717,1.0533 0.47204,0.21809 1.213,0.54961 1.6472,0.73726 0.43409,0.18765 1.2018,0.50665 1.7064,0.70932 0.50457,0.20224 1.2272,0.4833 1.6054,0.62467 0.37822,0.14136 1.2135,0.43451 1.8556,0.65135 0.64218,0.21725 1.5804,0.51666 2.085,0.66637 0.50457,0.14928 1.3382,0.3828 1.8527,0.51874 0.51457,0.13595 1.3965,0.35028 1.9599,0.47621 0.56336,0.12594 1.3248,0.28648 1.6918,0.35654 0.36696,0.0705 1.005,0.18265 1.4178,0.24979 0.41283,0.0671 1.0229,0.1597 1.3552,0.20557 0.33277,0.0459 0.94245,0.12135 1.3552,0.16722 0.41283,0.0459 1.1072,0.11176 1.5429,0.14595 0.43577,0.0342 1.2427,0.0838 1.7931,0.11051 0.62175,0.03 1.6797,0.0396 2.7939,0.0251 0.98618,-0.0129 2.1968,-0.053 2.6896,-0.0892 0.49331,-0.0358 1.2627,-0.10384 1.7097,-0.15054 0.44744,-0.0467 1.1606,-0.13135 1.5846,-0.1889 0.42451,-0.0572 1.1092,-0.16055 1.522,-0.22976 0.41283,-0.0692 1.0417,-0.18224 1.397,-0.25104 0.3557,-0.0692 0.93743,-0.19098 1.2927,-0.27105 0.3557,-0.0796 1.0187,-0.23853 1.4737,-0.35278 0.45495,-0.11426 1.2523,-0.33026 1.7722,-0.47997 0.51958,-0.1497 1.4704,-0.4466 2.1125,-0.66053 0.64218,-0.2135 1.5804,-0.54335 2.085,-0.73308 0.50457,-0.18932 1.314,-0.50958 1.7981,-0.71141 0.48455,-0.2014 1.2072,-0.51124 1.6054,-0.68763 0.39865,-0.1768 1.1472,-0.52459 1.663,-0.7731 0.51625,-0.24853 1.3173,-0.64802 1.7806,-0.88822 0.46329,-0.2402 1.1104,-0.59924 1.4386,-0.7977 0.32776,-0.19808 0.78022,-0.49206 1.005,-0.65261 0.22476,-0.16054 0.59673,-0.44161 0.82695,-0.62467 0.22976,-0.18306 0.61882,-0.53334 0.86482,-0.7785 0.24603,-0.24477 0.59006,-0.62383 0.76523,-0.84232 0.17472,-0.21809 0.42408,-0.56504 0.55419,-0.77145 0.13011,-0.206 0.32776,-0.56337 0.43952,-0.79395 0.11217,-0.23102 0.27022,-0.61925 0.35153,-0.8628 0.0817,-0.24353 0.18431,-0.61758 0.22852,-0.83153 0.0442,-0.21351 0.10008,-0.57045 0.12426,-0.79312 0.0242,-0.22268 0.0438,-0.5888 0.0438,-0.81315 -4.1e-4,-0.22434 -0.0288,-0.72725 -0.0634,-1.1171 -0.0346,-0.38989 -0.1939,-2.276 -0.35403,-4.1908 -0.15971,-1.9153 -0.35612,-4.1575 -0.43576,-4.9832 -0.0797,-0.82567 -0.18307,-1.839 -0.23018,-2.2518 -0.0467,-0.41283 -0.13303,-1.1355 -0.19099,-1.6054 -0.0583,-0.47037 -0.17139,-1.3052 -0.25103,-1.8556 -0.0801,-0.55044 -0.19224,-1.2823 -0.24937,-1.6263 -0.0572,-0.34402 -0.17973,-1.0292 -0.27188,-1.522 -0.0922,-0.49289 -0.25229,-1.2814 -0.35529,-1.7514 -0.10341,-0.47037 -0.2919,-1.2676 -0.4195,-1.7722 -0.12718,-0.50457 -0.35028,-1.321 -0.4954,-1.814 -0.14553,-0.49289 -0.40407,-1.319 -0.5742,-1.8348 -0.17056,-0.51624 -0.43577,-1.2852 -0.59006,-1.7097 -0.15388,-0.4245 -0.43576,-1.1655 -0.62633,-1.6472 -0.19016,-0.48163 -0.48831,-1.208 -0.66179,-1.6142 -0.17388,-0.40616 -0.5054,-1.1472 -0.73725,-1.6472 -0.23185,-0.49957 -0.63384,-1.3215 -0.89325,-1.826 -0.25895,-0.50457 -0.61632,-1.1801 -0.79395,-1.5012 -0.17722,-0.32109 -0.49206,-0.87487 -0.69973,-1.2302 -0.20724,-0.3557 -0.5642,-0.94657 -0.79357,-1.3136 -0.22893,-0.36696 -0.63676,-0.99577 -0.90653,-1.397 -0.26938,-0.40157 -0.69138,-1.0112 -0.93742,-1.3552 -0.24603,-0.34402 -0.68429,-0.93322 -0.97372,-1.3098 -0.2894,-0.37613 -0.82485,-1.042 -1.1893,-1.4804 -0.36488,-0.43785 -0.88823,-1.0458 -1.163,-1.3515 -0.27438,-0.30524 -0.7923,-0.8628 -1.1505,-1.2389 -0.3582,-0.37613 -0.96157,-0.97995 -1.3406,-1.3419 -0.37905,-0.36237 -0.87615,-0.82778 -1.105,-1.035 -0.22852,-0.20684 -0.67846,-0.60131 -0.99953,-0.87653 -0.32109,-0.2748 -0.86527,-0.72558 -1.2093,-1.0016 -0.34402,-0.27605 -0.85064,-0.6722 -1.1259,-0.88028 -0.27522,-0.20766 -0.78187,-0.57921 -1.1259,-0.82522 -0.34402,-0.24603 -0.94447,-0.65886 -1.3344,-0.91695 -0.38989,-0.25812 -0.96367,-0.62925 -1.2748,-0.8244 -0.3115,-0.19474 -0.771,-0.46913 -1.0216,-0.60924 -0.25062,-0.14012 -0.63009,-0.33026 -0.8436,-0.42242 -0.21309,-0.0926 -0.5321,-0.20642 -0.7089,-0.25395 -0.17639,-0.0471 -0.48998,-0.093 -0.69639,-0.10217 z m -87.51,46.233 c -0.46996,0.005 -0.9954,0.0134 -1.1676,0.0196 -0.1718,0.006 -0.67846,0.0317 -1.1259,0.0567 -0.44702,0.0254 -1.1038,0.0725 -1.4595,0.1055 -0.35528,0.0334 -1.0308,0.10842 -1.5012,0.16722 -0.46996,0.0592 -1.2393,0.17097 -1.7097,0.24895 -0.46996,0.078 -1.1738,0.20641 -1.5638,0.28564 -0.38989,0.0792 -1.0467,0.22143 -1.4595,0.3165 -0.41283,0.0951 -1.2572,0.29357 -1.8765,0.44077 -0.61925,0.14761 -1.379,0.33485 -1.6888,0.41617 -0.30941,0.0813 -0.86317,0.24894 -1.2302,0.37238 -0.36696,0.12343 -0.83153,0.30024 -1.0325,0.39281 -0.201,0.0926 -0.50124,0.25604 -0.66721,0.36279 -0.16596,0.10676 -0.40323,0.28023 -0.52708,0.38573 -0.12427,0.10508 -0.3311,0.32401 -0.45995,0.48622 -0.12885,0.16221 -0.31192,0.44453 -0.40658,0.62717 -0.0947,0.18306 -0.22768,0.49164 -0.29565,0.6868 -0.068,0.19473 -0.16305,0.52333 -0.21141,0.72975 -0.048,0.20641 -0.11593,0.56795 -0.15138,0.80317 -0.035,0.23518 -0.0922,0.72307 -0.12635,1.0842 -0.0342,0.36112 -0.0809,1.163 -0.10342,1.7822 -0.0229,0.61925 -0.0421,1.9754 -0.0421,3.0141 l -4.2e-4,1.8882 0.14679,1.1559 c 0.0809,0.63551 0.21267,1.5875 0.29273,2.115 0.0801,0.52751 0.21225,1.3436 0.29399,1.814 0.0813,0.46995 0.22267,1.2393 0.31441,1.7097 0.0913,0.46995 0.26938,1.324 0.39573,1.8973 0.12635,0.57338 0.35153,1.5304 0.50082,2.1267 0.14887,0.5963 0.36445,1.4211 0.4783,1.8327 0.11425,0.41158 0.32109,1.1246 0.45953,1.5846 0.13886,0.45996 0.39865,1.2769 0.57754,1.816 0.17931,0.53877 0.46662,1.3644 0.63927,1.8348 0.17263,0.47037 0.41658,1.1176 0.5421,1.4386 0.12552,0.3211 0.34986,0.87443 0.49831,1.2302 0.14887,0.35571 0.41117,0.96533 0.58338,1.3552 0.17222,0.3899 0.51333,1.1272 0.75893,1.6384 0.2452,0.51124 0.64384,1.309 0.88657,1.7722 0.24228,0.46371 0.58172,1.0959 0.7548,1.4057 0.17264,0.30942 0.47288,0.83483 0.66762,1.1676 0.19433,0.33235 0.55169,0.92363 0.79395,1.3136 0.24228,0.3899 0.67054,1.0525 0.95198,1.4728 0.28147,0.42034 0.75562,1.105 1.0542,1.522 0.29815,0.41701 0.78022,1.0676 1.0713,1.4462 0.29106,0.37822 0.73642,0.94118 0.98992,1.251 0.25312,0.30941 0.73767,0.88447 1.0762,1.2777 0.33903,0.39324 0.8628,0.98415 1.1647,1.3136 0.30149,0.32943 1.0479,1.0959 1.6588,1.7038 0.61048,0.60757 1.4098,1.3756 1.7764,1.7064 0.36696,0.33068 0.91117,0.81187 1.2098,1.0692 0.29857,0.2577 0.82942,0.70265 1.1797,0.9891 0.35028,0.28648 0.94658,0.75975 1.3256,1.0516 0.37863,0.2919 0.96787,0.73059 1.3094,0.97455 0.34152,0.24354 0.81442,0.56421 1.0504,0.71224 0.23643,0.14804 0.62466,0.36821 0.8628,0.48956 0.23811,0.12177 0.60381,0.27564 0.81315,0.34278 0.20933,0.0668 0.53209,0.14386 0.71766,0.17055 0.26062,0.0379 0.41283,0.0379 0.66636,-4.2e-4 0.18057,-0.0275 0.42284,-0.0872 0.53793,-0.13219 0.11551,-0.0455 0.32235,-0.15053 0.45996,-0.23352 0.13761,-0.0826 0.40991,-0.31108 0.60465,-0.50749 0.19515,-0.19641 0.48747,-0.55378 0.65052,-0.7944 0.16263,-0.24103 0.40949,-0.64426 0.54793,-0.89655 0.13844,-0.25228 0.40532,-0.7965 0.59297,-1.2093 0.18765,-0.41283 0.52459,-1.1072 0.74852,-1.5429 0.22393,-0.43576 0.55836,-1.0458 0.74309,-1.3552 0.18473,-0.30983 0.49957,-0.80692 0.69973,-1.105 0.20058,-0.29815 0.54669,-0.78607 0.76897,-1.0842 0.22268,-0.29815 0.59923,-0.77685 0.83648,-1.0634 0.23769,-0.2869 0.86482,-0.95407 1.394,-1.4828 0.52876,-0.52875 1.1876,-1.1492 1.4637,-1.3786 0.27606,-0.22935 0.72642,-0.5863 1.0008,-0.79312 0.27439,-0.20684 0.72392,-0.52668 0.99953,-0.71099 0.27522,-0.1839 0.77272,-0.49915 1.105,-0.69973 0.33235,-0.20099 1.0358,-0.57713 1.5633,-0.83647 0.5275,-0.25937 1.2406,-0.5838 1.5846,-0.72141 0.34402,-0.13761 0.85065,-0.32776 1.1259,-0.42242 0.27522,-0.0951 0.75975,-0.24728 1.0762,-0.33902 0.31692,-0.0917 0.81022,-0.22226 1.0963,-0.29065 0.28607,-0.0684 0.71182,-0.16221 0.9462,-0.2085 0.23394,-0.0463 0.65095,-0.11968 0.92618,-0.16305 0.27522,-0.0438 0.7539,-0.108 1.0634,-0.14345 0.30983,-0.035 0.9195,-0.0855 1.3552,-0.11217 0.47121,-0.0288 1.2401,-0.0388 1.8974,-0.0246 0.60799,0.0134 1.4149,0.0538 1.7931,0.0905 0.37864,0.0367 1.0112,0.113 1.4057,0.16972 0.39489,0.0563 1.0425,0.1693 1.4386,0.25062 0.39657,0.0817 0.9462,0.20474 1.2214,0.27354 0.27522,0.0692 0.82898,0.21935 1.2302,0.3336 0.40157,0.11468 1.1759,0.34862 1.7218,0.51959 0.54543,0.17138 1.399,0.45328 1.8974,0.62675 0.49789,0.17347 1.2902,0.45662 1.7602,0.62925 0.47038,0.17264 1.4837,0.56295 2.2518,0.86693 0.76852,0.30441 1.8473,0.74142 2.3978,0.97162 0.55044,0.22977 1.545,0.65261 2.2101,0.93908 0.66511,0.28647 1.9882,0.86235 2.9398,1.2802 0.95205,0.41741 2.012,0.88073 2.356,1.0296 0.34402,0.14846 0.90697,0.38322 1.251,0.52125 0.34402,0.13803 0.92572,0.36362 1.2927,0.50082 0.36696,0.13719 0.99577,0.36112 1.397,0.49748 0.40157,0.13636 1.1238,0.3678 1.6054,0.51416 0.48163,0.14637 1.1197,0.33277 1.4178,0.41408 0.29815,0.0813 0.9645,0.2502 1.4804,0.37572 0.51624,0.12551 1.3136,0.30357 1.7722,0.39573 0.4587,0.0922 1.228,0.23394 1.7097,0.31526 0.48163,0.0809 1.3165,0.20265 1.8556,0.27021 0.53918,0.0676 1.2989,0.15179 1.6888,0.18723 0.38989,0.035 0.99997,0.0838 1.3552,0.10759 0.3557,0.0241 1.294,0.055 2.085,0.0688 0.88695,0.0158 1.8465,0.007 2.502,-0.0238 0.58505,-0.0271 1.3919,-0.0771 1.7931,-0.11092 0.40157,-0.0342 1.1146,-0.10842 1.5846,-0.16554 0.47037,-0.0571 1.2418,-0.16889 1.7147,-0.24812 0.47288,-0.0792 1.1756,-0.211 1.5616,-0.29232 0.38615,-0.0813 1.0784,-0.24311 1.5383,-0.35987 0.45953,-0.11634 1.1922,-0.32109 1.628,-0.45494 0.43576,-0.13386 1.0834,-0.34528 1.4386,-0.4708 0.3557,-0.1251 0.92782,-0.33944 1.2718,-0.47663 0.34402,-0.13719 0.91657,-0.37739 1.2718,-0.53418 0.3557,-0.15637 1.0029,-0.46578 1.4386,-0.68721 0.43576,-0.22185 1.1021,-0.58089 1.4812,-0.79853 0.37864,-0.21726 0.96038,-0.57087 1.2927,-0.78562 0.33194,-0.21476 0.82898,-0.54878 1.1042,-0.74226 0.27522,-0.1935 0.76312,-0.5542 1.0842,-0.8019 0.32109,-0.24812 0.87322,-0.69973 1.2268,-1.0037 0.35361,-0.304 0.94282,-0.84442 1.3094,-1.2014 0.36654,-0.35653 0.9378,-0.94867 1.2702,-1.3156 0.33192,-0.36696 0.85192,-0.97702 1.1555,-1.3552 0.30317,-0.37864 0.70098,-0.89445 0.88403,-1.1468 0.18264,-0.25228 0.51958,-0.74017 0.74893,-1.0842 0.22935,-0.34402 0.55836,-0.86025 0.73142,-1.1468 0.17264,-0.2869 0.47538,-0.8148 0.67179,-1.1734 0.19682,-0.35904 0.45202,-0.84067 0.56754,-1.0708 0.1155,-0.22977 0.34819,-0.72433 0.51791,-1.0988 0.1693,-0.37447 0.42117,-0.9624 0.55961,-1.3065 0.13886,-0.34403 0.29941,-0.77648 0.35737,-0.9612 0.058,-0.18474 0.15221,-0.56004 0.20933,-0.834 0.0575,-0.27397 0.13428,-0.70473 0.17097,-0.957 0.0363,-0.25229 0.13136,-1.1063 0.21101,-1.8974 0.0796,-0.79103 0.15679,-1.5362 0.1718,-1.6555 l 0.0271,-0.21684 -0.43326,0.0179 c -0.23811,0.01 -1.08,0.0275 -1.8715,0.0388 -0.79102,0.0113 -1.645,0.0412 -1.8974,0.0668 -0.25228,0.025 -0.64468,0.0813 -0.8724,0.1251 -0.22768,0.0434 -0.67804,0.17097 -1.0008,0.28314 -0.32276,0.11217 -1.0187,0.35696 -1.5462,0.54335 -0.5275,0.1864 -1.3719,0.46954 -1.8765,0.62884 -0.50457,0.15971 -1.3114,0.40199 -1.7931,0.53876 -0.48163,0.13719 -1.1663,0.32443 -1.522,0.41658 -0.35528,0.0917 -1.0192,0.25312 -1.4745,0.35821 -0.45536,0.10508 -1.2401,0.2748 -1.7439,0.37739 -0.50332,0.10257 -1.4258,0.27105 -2.0492,0.37446 -0.62341,0.10341 -1.6492,0.2527 -2.2802,0.33151 -0.6305,0.0788 -1.5784,0.18182 -2.1058,0.22894 -0.5275,0.0476 -1.231,0.10425 -1.5638,0.12635 -0.33235,0.0221 -1.1864,0.0625 -1.8974,0.0892 -0.78607,0.0296 -1.8894,0.0384 -2.8148,0.0221 -0.83693,-0.0146 -1.9912,-0.0542 -2.5646,-0.0884 -0.57337,-0.0337 -1.2769,-0.0813 -1.5638,-0.10509 -0.28648,-0.0238 -0.71807,-0.0625 -0.9591,-0.0859 -0.24061,-0.0238 -0.75937,-0.0797 -1.1522,-0.12427 -0.39281,-0.0451 -0.9933,-0.11884 -1.3344,-0.16471 -0.34111,-0.0454 -0.87322,-0.12176 -1.183,-0.16931 -0.30983,-0.0479 -0.88193,-0.14261 -1.2718,-0.21058 -0.3899,-0.0679 -1.0934,-0.19932 -1.5638,-0.29148 -0.46996,-0.0922 -1.2302,-0.25187 -1.6888,-0.35487 -0.4587,-0.103 -1.1438,-0.26271 -1.522,-0.35528 -0.37822,-0.0926 -1.1101,-0.28106 -1.6263,-0.41867 -0.51583,-0.13761 -1.3323,-0.37155 -1.814,-0.51958 -0.48163,-0.14804 -1.1008,-0.34528 -1.3761,-0.43827 -0.27522,-0.0934 -0.85695,-0.29774 -1.2927,-0.45495 -0.43577,-0.15679 -1.1768,-0.43785 -1.6472,-0.62424 -0.46996,-0.1864 -1.2865,-0.52751 -1.814,-0.75765 -0.52751,-0.23019 -1.2593,-0.55962 -1.6263,-0.73143 -0.36696,-0.17222 -1.183,-0.57254 -1.814,-0.88987 -0.6305,-0.31734 -1.4657,-0.74894 -1.8556,-0.9591 -0.38989,-0.21017 -1.1801,-0.65135 -1.7564,-0.97995 -0.5763,-0.32902 -1.3832,-0.79898 -1.7931,-1.0442 -0.40992,-0.24561 -1.0834,-0.65636 -1.4962,-0.91238 -0.41283,-0.25645 -1.0976,-0.68847 -1.522,-0.95992 -0.42408,-0.27188 -1.2043,-0.7785 -1.733,-1.1264 -0.52917,-0.34736 -1.4674,-0.9762 -2.085,-1.397 -0.61799,-0.42034 -1.6392,-1.1209 -2.2702,-1.5567 -0.6305,-0.43577 -1.8315,-1.2706 -2.6688,-1.8561 -0.83692,-0.58505 -2.1692,-1.5133 -2.9607,-2.0625 -0.79102,-0.54919 -2.1796,-1.4908 -3.0858,-2.0925 -0.9057,-0.60173 -2.0504,-1.3469 -2.5437,-1.6563 -0.49289,-0.30941 -1.3052,-0.80895 -1.8048,-1.1104 -0.49957,-0.30149 -1.2406,-0.73934 -1.6472,-0.97245 -0.40657,-0.23352 -1.1797,-0.66595 -1.7188,-0.96075 -0.53876,-0.29482 -1.5146,-0.8052 -2.1684,-1.1347 -0.65344,-0.32943 -1.4979,-0.74392 -1.8765,-0.92115 -0.39675,-0.171 -1.026,-0.45675 -1.416,-0.62775 -0.39,-0.17175 -1.101,-0.47175 -1.5802,-0.66675 -0.47925,-0.19425 -1.1738,-0.46725 -1.5428,-0.606 -0.369,-0.13875 -1.1408,-0.41025 -1.7138,-0.60375 -0.57375,-0.19275 -1.521,-0.48975 -2.106,-0.6585 -0.585,-0.16875 -1.4108,-0.39225 -1.8352,-0.4965 -0.42375,-0.1035 -1.128,-0.264 -1.5638,-0.3555 -0.43575,-0.0915 -1.0545,-0.2145 -1.3755,-0.27225 -0.32175,-0.0585 -0.89325,-0.1515 -1.272,-0.2085 -0.378,-0.0562 -1.0162,-0.1395 -1.4182,-0.186 -0.4005,-0.0457 -1.0762,-0.1125 -1.5008,-0.14775 -0.42409,-0.0354 -1.2218,-0.083 -1.7722,-0.10591 -0.55044,-0.0229 -1.3852,-0.0379 -1.8556,-0.0338 z m 35.591,51.54 c -0.43576,0.005 -0.88613,0.0134 -1.0008,0.0208 -0.11467,0.007 -0.48038,0.0425 -0.81315,0.0788 -0.33235,0.0358 -0.85777,0.11175 -1.1676,0.16847 -0.30941,0.0567 -0.82567,0.17055 -1.1468,0.25269 -0.32109,0.0826 -0.85567,0.2427 -1.1884,0.35571 -0.33235,0.11301 -0.82778,0.29941 -1.1005,0.41408 -0.27272,0.11467 -0.72308,0.3215 -1.0008,0.45995 -0.27772,0.13802 -0.78644,0.41909 -1.1305,0.62425 -0.34402,0.20516 -0.84773,0.52917 -1.1197,0.71974 -0.27189,0.19057 -0.7406,0.54168 -1.0417,0.78022 -0.30107,0.23852 -0.83985,0.72433 -1.1976,1.08 -0.35779,0.35529 -0.7773,0.8061 -0.9324,1.0008 -0.15512,0.19474 -0.43243,0.57963 -0.61591,0.85485 -0.18348,0.27522 -0.4687,0.77228 -0.63384,1.105 -0.16471,0.33235 -0.35945,0.77355 -0.43285,0.97995 -0.073,0.20642 -0.17973,0.55336 -0.23643,0.77145 -0.0567,0.21768 -0.13636,0.57421 -0.1764,0.7923 -0.0542,0.29524 -0.073,0.61883 -0.073,1.2718 -4.1e-4,0.73309 0.0146,0.95618 0.0926,1.3699 0.0517,0.27188 0.16097,0.70347 0.24353,0.9591 0.0826,0.25562 0.2281,0.64301 0.32401,0.86107 0.0955,0.21768 0.28147,0.57921 0.41325,0.80273 0.13177,0.22393 0.38364,0.59922 0.56003,0.834 0.17639,0.23518 0.5371,0.64468 0.80107,0.9099 0.26438,0.26562 0.65928,0.62467 0.87698,0.79815 0.21767,0.17347 0.63092,0.46912 0.9174,0.65718 0.2869,0.18766 0.89655,0.52626 1.3552,0.75225 0.4587,0.2256 1.1813,0.56045 1.6054,0.74351 0.42451,0.18265 1.0717,0.4537 1.4386,0.60173 0.36696,0.14804 1.005,0.39615 1.4178,0.55127 0.41283,0.15513 1.2481,0.44787 1.8556,0.65011 0.60799,0.20225 1.5274,0.48914 2.0433,0.63759 0.51625,0.14846 1.3136,0.36446 1.7722,0.47997 0.4587,0.11551 1.1251,0.27563 1.4804,0.3557 0.3557,0.0797 1.0404,0.22059 1.522,0.31275 0.48163,0.0922 1.1197,0.20642 1.4178,0.25395 0.29815,0.0479 0.87067,0.13219 1.2723,0.18766 0.40115,0.055 1.0934,0.13886 1.5375,0.18598 0.4441,0.0471 1.1852,0.11384 1.6467,0.14804 0.46162,0.0342 1.2994,0.0805 1.861,0.10341 0.56212,0.0225 1.397,0.0413 1.8556,0.0413 0.4587,0 1.3031,-0.0188 1.8765,-0.0417 0.57337,-0.0225 1.4366,-0.07 1.9182,-0.10508 0.48163,-0.0346 1.3073,-0.11093 1.8348,-0.16889 0.5275,-0.058 1.344,-0.16096 1.814,-0.22894 0.47037,-0.0676 1.08,-0.16137 1.3552,-0.20808 0.27522,-0.0463 0.93202,-0.1693 1.4595,-0.27313 0.5275,-0.10384 1.4362,-0.30024 2.0192,-0.43702 0.58338,-0.13677 1.5216,-0.36904 2.085,-0.51625 0.56378,-0.1472 1.5596,-0.41991 2.2134,-0.60548 0.65385,-0.18598 1.6859,-0.48872 2.2935,-0.67303 0.60756,-0.1839 1.668,-0.51291 2.356,-0.73059 0.68805,-0.21726 1.7952,-0.57379 2.4603,-0.79185 0.66511,-0.2181 2.0254,-0.66554 3.0232,-0.99458 0.99787,-0.32901 2.5082,-0.82357 3.3568,-1.0992 0.84862,-0.27563 2.1154,-0.68304 2.8148,-0.90487 0.69972,-0.22185 1.2769,-0.40782 1.2827,-0.41283 0.006,-0.005 -0.20934,-0.20475 -0.47788,-0.44327 -0.26897,-0.23894 -0.9495,-0.8832 -1.5121,-1.432 -0.56295,-0.54919 -1.1405,-1.095 -1.2839,-1.2135 -0.14387,-0.11843 -0.35362,-0.26563 -0.46662,-0.32693 -0.14471,-0.0788 -0.30858,-0.12343 -0.55253,-0.15012 -0.19057,-0.0208 -0.60924,-0.0592 -0.9303,-0.0855 -0.32109,-0.0259 -1.0241,-0.10217 -1.5621,-0.16889 -0.53793,-0.0671 -1.3823,-0.1889 -1.8765,-0.27063 -0.49414,-0.0817 -1.3018,-0.2306 -1.7948,-0.3311 -0.49289,-0.10008 -1.2176,-0.25771 -1.6105,-0.34986 -0.3924,-0.0926 -0.9741,-0.23602 -1.2927,-0.31859 -0.31818,-0.0826 -0.94448,-0.25395 -1.3919,-0.38072 -0.44702,-0.12677 -1.2823,-0.37739 -1.8556,-0.55711 -0.57337,-0.18015 -1.502,-0.48581 -2.0642,-0.6793 -0.5617,-0.19391 -1.4999,-0.53084 -2.085,-0.74893 -0.58463,-0.21809 -1.495,-0.56545 -2.0224,-0.7719 -0.5275,-0.20599 -1.5971,-0.63801 -2.3769,-0.95955 -0.77977,-0.32151 -3.0408,-1.279 -5.0248,-2.1272 -1.9837,-0.84862 -4.1729,-1.7789 -4.8647,-2.0674 -0.6918,-0.28856 -1.7802,-0.73266 -2.4186,-0.987 -0.63843,-0.25437 -1.6059,-0.62925 -2.1496,-0.83317 -0.54377,-0.20391 -1.2568,-0.4537 -1.5846,-0.55545 -0.32777,-0.10133 -0.8961,-0.26062 -1.2631,-0.35402 -0.36696,-0.0934 -0.96742,-0.22519 -1.3344,-0.29316 -0.36696,-0.0676 -0.91117,-0.15303 -1.2093,-0.18973 -0.29815,-0.0367 -0.79522,-0.0851 -1.105,-0.10801 -0.30941,-0.0225 -0.9195,-0.038 -1.3552,-0.0338 z"
       id="icon" /></g></svg>