<?xml version="1.0" encoding="UTF-8" standalone="no"?>
<svg
   xmlns:dc="http://purl.org/dc/elements/1.1/"
   xmlns:cc="http://creativecommons.org/ns#"
   xmlns:rdf="http://www.w3.org/1999/02/22-rdf-syntax-ns#"
   xmlns:svg="http://www.w3.org/2000/svg"
   xmlns="http://www.w3.org/2000/svg"
   id="svg22"
   xml:space="preserve"
   viewBox="0 0 1024 768"
   y="0px"
   x="0px"
   version="1.1"><metadata
     id="metadata26"><rdf:RDF><cc:Work
         rdf:about=""><dc:format>image/svg+xml</dc:format><dc:type
           rdf:resource="http://purl.org/dc/dcmitype/StillImage" /></cc:Work></rdf:RDF></metadata><defs
     id="defs11"><filter
       height="200%"
       width="200%"
       y="-50%"
       x="-50%"
       id="noise"><feGaussianBlur
         id="feGaussianBlur2"
         stdDeviation="2"
         in="SourceGraphic" /><feTurbulence
         id="feTurbulence4"
         result="cloud"
         seed="1"
         numOctaves="2"
         type="fractalNoise"
         baseFrequency="0.6" /><feColorMatrix
         id="feColorMatrix6"
         result="cloud"
         type="luminanceToAlpha"
         in="cloud" /><feComposite
         id="feComposite8"
         result="output"
         operator="in"
         in2="cloud"
         in="SourceGraphic" /></filter></defs><linearGradient
     y2="565.2551"
     x2="714.6448"
     y1="196.7104"
     x1="346.1001"
     gradientUnits="userSpaceOnUse"
     id="gradient"><stop
       id="stop13"
       style="stop-color:#f0f0f0; stop-opacity: 0"
       offset="0" /><stop
       id="stop15"
       style="stop-color:#f0f0f0; stop-opacity: 1"
       offset="1" /></linearGradient><g
     transform="matrix(3.7895,0,0,3.7895,-1523.7,-1071)"
     id="logo-group"><path
       style="fill:#239bc4;stroke-width:0.75"
       d="m 538.17,315.79 c -1.0091,-0.008 -1.9941,-0.009 -2.1892,-8.4e-4 -0.19474,0.008 -0.79522,0.0342 -1.3344,0.0588 -0.53876,0.0246 -1.4678,0.0826 -2.0642,0.12844 -0.59631,0.0459 -1.4408,0.12051 -1.8765,0.16596 -0.43576,0.0455 -1.3082,0.14846 -1.939,0.22893 -0.6305,0.0805 -1.6346,0.22227 -2.231,0.31484 -0.59631,0.093 -1.4478,0.2331 -1.8923,0.31192 -0.44453,0.0788 -1.12,0.21016 -1.5012,0.2919 -0.38114,0.0813 -1.0308,0.23226 -1.4437,0.33485 -0.41283,0.10216 -0.99457,0.2527 -1.2927,0.33402 -0.29815,0.0813 -0.88905,0.2502 -1.3136,0.37572 -0.42409,0.12552 -1.2406,0.37905 -1.814,0.56378 -0.57337,0.18473 -1.6242,0.53876 -2.3352,0.7869 -0.71099,0.24812 -2.2122,0.78315 -3.336,1.1889 -1.1238,0.40574 -2.5779,0.92535 -3.2318,1.1542 -0.65344,0.22935 -1.5354,0.53084 -1.9599,0.67012 -0.42409,0.13927 -0.77813,0.25812 -0.78607,0.26437 -0.008,0.006 0.0834,0.55295 0.2039,1.2155 l 0.21935,1.2047 0.81735,0.3899 c 0.44953,0.21475 0.97703,0.45912 1.1718,0.54376 0.19516,0.0847 1.0021,0.38907 1.7931,0.6768 0.79103,0.28773 2.0204,0.73851 2.7314,1.0024 0.71099,0.26354 2.8598,1.0646 4.7746,1.7798 1.9153,0.71557 4.1671,1.5542 5.004,1.8636 0.8373,0.30983 2.3761,0.8724 3.4194,1.2506 1.0438,0.37821 2.6763,0.96037 3.6279,1.2932 0.95198,0.33318 2.5375,0.87442 3.5236,1.2026 0.98618,0.32818 2.4219,0.79358 3.19,1.0346 0.76852,0.24144 1.7722,0.55127 2.231,0.6893 0.4587,0.13761 1.168,0.34528 1.5766,0.46079 0.40824,0.11593 1.1213,0.2944 1.5846,0.3974 0.46287,0.10259 1.1797,0.24269 1.5926,0.3115 0.41283,0.0688 1.0508,0.16305 1.4178,0.20933 0.36696,0.0467 0.97703,0.11259 1.3552,0.14637 0.37864,0.0342 1.1008,0.0838 1.6054,0.11051 0.58255,0.0308 1.5642,0.0396 2.6896,0.0242 0.97493,-0.0133 2.035,-0.0438 2.356,-0.068 0.32109,-0.0242 0.90277,-0.0726 1.2927,-0.10759 0.38989,-0.035 1.0713,-0.11008 1.5137,-0.16722 0.44286,-0.0567 1.015,-0.14886 1.2718,-0.20433 0.25688,-0.0559 0.69222,-0.16971 0.96743,-0.25311 0.27522,-0.0838 0.70682,-0.23644 0.9591,-0.33903 0.25228,-0.10299 0.67095,-0.29857 0.9303,-0.43451 0.25979,-0.13552 0.65385,-0.36445 0.8757,-0.50791 0.22225,-0.14344 0.59172,-0.41032 0.8211,-0.59256 0.22935,-0.18264 0.58922,-0.50623 0.79935,-0.71974 0.21058,-0.21309 0.49999,-0.53293 0.64343,-0.71057 0.14345,-0.17764 0.3899,-0.52041 0.54752,-0.76102 0.15763,-0.24103 0.39741,-0.66303 0.53251,-0.93825 0.13553,-0.27522 0.30399,-0.6572 0.37405,-0.849 0.0701,-0.19182 0.17305,-0.51083 0.22852,-0.7089 0.055,-0.19808 0.13803,-0.55753 0.18348,-0.79815 0.0459,-0.24103 0.10591,-0.6622 0.13386,-0.93615 0.0313,-0.31067 0.0417,-0.7902 0.0271,-1.2718 -0.0129,-0.42534 -0.0538,-0.95198 -0.0905,-1.1697 -0.0367,-0.21809 -0.12051,-0.60257 -0.1864,-0.8553 -0.0659,-0.25271 -0.19765,-0.65594 -0.29273,-0.89655 -0.0955,-0.24061 -0.25812,-0.59714 -0.36154,-0.79185 -0.10384,-0.19516 -0.30691,-0.53293 -0.45203,-0.7506 -0.14511,-0.21809 -0.44494,-0.60716 -0.66636,-0.86483 -0.22185,-0.2577 -0.56754,-0.61549 -0.76815,-0.7956 -0.20057,-0.18014 -0.51083,-0.44327 -0.6893,-0.58505 -0.17806,-0.14136 -0.5617,-0.41491 -0.85237,-0.60799 -0.29065,-0.19265 -0.77228,-0.48663 -1.0704,-0.65302 -0.29816,-0.16638 -0.7677,-0.40991 -1.0433,-0.54127 -0.27564,-0.13135 -0.73266,-0.33526 -1.0158,-0.4537 -0.28272,-0.11801 -0.789,-0.319 -1.1246,-0.44702 -0.33611,-0.1276 -0.90158,-0.33402 -1.2572,-0.45912 -0.35528,-0.12468 -0.96532,-0.32734 -1.3552,-0.44994 -0.38989,-0.12301 -1.1126,-0.33526 -1.6054,-0.47246 -0.49289,-0.13678 -1.3002,-0.34403 -1.7931,-0.46037 -0.49289,-0.11592 -1.2344,-0.27855 -1.6472,-0.3607 -0.41283,-0.0826 -1.1446,-0.21518 -1.6263,-0.29524 -0.48163,-0.0796 -1.3823,-0.20933 -2.0016,-0.28815 -0.61924,-0.0784 -1.5854,-0.18097 -2.1476,-0.22768 -0.56169,-0.0467 -1.3686,-0.10425 -1.7931,-0.12802 -0.42408,-0.0233 -1.5971,-0.0492 -2.6062,-0.0575 z m 37.78,13.631 c -0.20641,-0.009 -0.45036,-8.2e-4 -0.5421,0.0192 -0.0917,0.02 -0.26229,0.0726 -0.37905,0.11676 -0.11718,0.0446 -0.30149,0.1422 -0.41033,0.21684 -0.10842,0.0746 -0.29941,0.23977 -0.42451,0.36654 -0.1251,0.12718 -0.33026,0.38572 -0.45578,0.57463 -0.12594,0.18931 -0.32025,0.53835 -0.43159,0.77602 -0.11135,0.23769 -0.3286,0.789 -0.48248,1.2248 -0.15387,0.43577 -0.37154,1.0221 -0.48372,1.3027 -0.11217,0.28064 -0.32067,0.76642 -0.46287,1.0788 -0.14261,0.31275 -0.43951,0.89947 -0.6601,1.3036 -0.22018,0.40449 -0.56379,0.99413 -0.76268,1.3106 -0.19932,0.3165 -0.53793,0.82312 -0.75307,1.1259 -0.21518,0.30274 -0.55628,0.75682 -0.7581,1.0091 -0.20225,0.25229 -0.5567,0.67429 -0.78773,0.93825 -0.23101,0.26354 -0.70139,0.76148 -1.0458,1.1055 -0.34444,0.34445 -0.90405,0.86483 -1.2443,1.1564 -0.34027,0.29148 -0.8469,0.7014 -1.1259,0.91073 -0.27897,0.20975 -0.79815,0.57421 -1.1538,0.80985 -0.35528,0.23602 -0.89948,0.57462 -1.2093,0.75307 -0.30983,0.17806 -0.88193,0.4783 -1.2718,0.6672 -0.38989,0.18848 -1.0187,0.46538 -1.397,0.61466 -0.37822,0.14928 -0.95745,0.35779 -1.2865,0.46329 -0.32943,0.1055 -0.90157,0.26605 -1.2718,0.35737 -0.37029,0.0913 -0.9453,0.21224 -1.2781,0.26938 -0.33235,0.0571 -0.87653,0.13678 -1.2093,0.17681 -0.44994,0.0538 -0.93577,0.073 -1.8974,0.0742 -0.98415,0.001 -1.452,-0.0163 -1.9599,-0.0742 -0.36696,-0.0413 -1.1176,-0.1397 -1.668,-0.2181 -0.55044,-0.0784 -1.3657,-0.20892 -1.8115,-0.29023 -0.44577,-0.0813 -1.2622,-0.24311 -1.8139,-0.35946 -0.5517,-0.11592 -1.5191,-0.33943 -2.15,-0.49665 -0.6305,-0.15679 -1.4657,-0.37196 -1.8556,-0.47788 -0.38989,-0.10592 -1.0371,-0.28648 -1.4386,-0.40157 -0.40115,-0.11468 -1.0112,-0.29316 -1.3552,-0.39657 -0.34402,-0.103 -0.9633,-0.29107 -1.3761,-0.41783 -0.41283,-0.12677 -1.3323,-0.4145 -2.0433,-0.6401 -0.71098,-0.22518 -1.9682,-0.6255 -2.7939,-0.88905 -0.82725,-0.2655 -1.8308,-0.58425 -2.2328,-0.71175 -0.4005,-0.12675 -1.593,-0.49275 -2.6475,-0.8145 -1.0552,-0.321 -2.406,-0.73575 -3.0022,-0.9225 -0.59625,-0.18675 -1.9005,-0.6015 -2.8988,-0.9225 -0.9975,-0.32025 -5.0978,-1.6792 -9.111,-3.0195 l -7.2975,-2.4365 -1.0988,0.10299 c -0.60423,0.0567 -1.477,0.15095 -1.939,0.20933 -0.46203,0.0584 -1.206,0.16305 -1.6534,0.23269 -0.44702,0.0701 -1.226,0.20892 -1.7306,0.30858 -0.50457,0.10008 -1.2681,0.26688 -1.6968,0.37071 -0.42868,0.10383 -1.1042,0.28231 -1.5012,0.39657 -0.39698,0.11384 -1.0033,0.30066 -1.3473,0.4145 -0.34403,0.11384 -0.89738,0.31024 -1.2302,0.4366 -0.33235,0.12593 -0.87653,0.34527 -1.2093,0.48705 -0.33235,0.14178 -0.94245,0.42451 -1.3552,0.62884 -0.41283,0.20433 -1.0508,0.5421 -1.4178,0.75105 -0.36696,0.20892 -0.98618,0.59131 -1.3761,0.84982 -0.3899,0.25854 -0.9057,0.61633 -1.1468,0.79561 -0.24061,0.17931 -0.58797,0.4466 -0.77145,0.59422 -0.18348,0.14762 -0.58714,0.48956 -0.89655,0.75975 -0.30941,0.27063 -0.9387,0.87405 -1.3982,1.3406 -0.45953,0.46661 -1.005,1.0454 -1.2122,1.2865 -0.20725,0.24061 -0.54293,0.64385 -0.74601,0.89527 -0.20308,0.25187 -0.55127,0.70223 -0.7731,1.0008 -0.22184,0.29898 -0.59256,0.81524 -0.82313,1.148 -0.2306,0.33235 -0.64301,0.9612 -0.91612,1.397 -0.27356,0.43577 -0.67637,1.1021 -0.89528,1.4804 -0.21892,0.37822 -0.57629,1.0162 -0.7944,1.4178 -0.21767,0.40115 -0.66052,1.2585 -0.98325,1.9045 -0.32317,0.64634 -0.77355,1.575 -1.0008,2.0641 -0.22726,0.48915 -0.55503,1.2098 -0.72849,1.6009 -0.17348,0.39156 -0.37488,0.8607 -0.44828,1.0425 -0.073,0.18223 -0.21601,0.57504 -0.31775,0.87323 -0.10175,0.29815 -0.23978,0.7581 -0.3065,1.0216 -0.0663,0.26355 -0.15054,0.65761 -0.18639,0.8757 -0.0359,0.21768 -0.0767,0.623 -0.0909,0.90031 -0.0159,0.31191 -0.005,0.66094 0.0267,0.91694 0.0284,0.22727 0.0972,0.56879 0.1522,0.75893 0.055,0.18974 0.17306,0.4904 0.26188,0.6672 0.0892,0.17723 0.24937,0.43868 0.35653,0.58088 0.10717,0.14262 0.32026,0.37405 0.47288,0.51417 0.15262,0.13969 0.40032,0.33568 0.55002,0.43493 0.1497,0.0993 0.42492,0.25728 0.61132,0.35111 0.18682,0.0938 0.50583,0.23394 0.7089,0.31109 0.2035,0.0776 0.59506,0.19849 0.8703,0.26938 0.27522,0.0705 0.70682,0.16555 0.9591,0.211 0.25229,0.0455 0.61842,0.103 0.81315,0.12844 0.19516,0.025 0.56087,0.0642 0.81315,0.0872 0.25229,0.0225 1.0404,0.053 1.7514,0.0671 0.80693,0.0163 2.5058,-0.002 4.5202,-0.0475 2.2451,-0.0513 3.901,-0.0663 5.4418,-0.05 1.2176,0.0129 2.4866,0.0434 2.819,0.0675 0.33277,0.0242 0.91448,0.0734 1.2927,0.10884 0.37864,0.0354 1.0112,0.11093 1.4066,0.16722 0.39489,0.0567 0.97664,0.15054 1.2927,0.2085 0.31567,0.058 0.88403,0.18181 1.2622,0.2748 0.37864,0.0926 1.0446,0.2869 1.4804,0.43118 0.43577,0.14428 1.0838,0.38447 1.4399,0.53376 0.35611,0.14928 1.163,0.49664 1.7931,0.77227 0.63009,0.27522 1.6805,0.74393 2.3339,1.0412 0.65386,0.2969 1.7422,0.80025 2.4186,1.1184 0.67638,0.31776 2.3469,1.1355 3.7113,1.8169 1.3644,0.68138 3.0912,1.5608 3.8364,1.9545 0.7456,0.39365 1.9745,1.0542 2.7314,1.4678 0.75683,0.41366 1.9578,1.0817 2.6688,1.4836 0.71099,0.40241 1.7902,1.0217 2.3978,1.3761 0.60799,0.35486 1.5462,0.90824 2.085,1.2302 0.53919,0.32151 1.6367,0.98789 2.4394,1.4808 0.80273,0.49289 2.0696,1.2844 2.8148,1.7589 0.7456,0.47413 1.8431,1.1814 2.4394,1.5708 0.59631,0.38989 1.8256,1.1964 2.7314,1.7926 0.90615,0.59588 1.9946,1.2994 2.4186,1.5638 0.42451,0.26395 1.1046,0.68012 1.5121,0.9249 0.40699,0.24478 1.1964,0.70515 1.7543,1.0233 0.55753,0.31817 1.4066,0.7902 1.8865,1.0487 0.47997,0.25895 1.4641,0.76643 2.1863,1.128 0.72266,0.36154 1.6997,0.83565 2.1717,1.0533 0.47204,0.21809 1.213,0.54961 1.6472,0.73726 0.43409,0.18765 1.2018,0.50665 1.7064,0.70932 0.50457,0.20224 1.2272,0.4833 1.6054,0.62467 0.37822,0.14136 1.2135,0.43451 1.8556,0.65135 0.64218,0.21725 1.5804,0.51666 2.085,0.66637 0.50457,0.14928 1.3382,0.3828 1.8527,0.51874 0.51457,0.13595 1.3965,0.35028 1.9599,0.47621 0.56336,0.12594 1.3248,0.28648 1.6918,0.35654 0.36696,0.0705 1.005,0.18265 1.4178,0.24979 0.41283,0.0671 1.0229,0.1597 1.3552,0.20557 0.33277,0.0459 0.94245,0.12135 1.3552,0.16722 0.41283,0.0459 1.1072,0.11176 1.5429,0.14595 0.43577,0.0342 1.2427,0.0838 1.7931,0.11051 0.62175,0.03 1.6797,0.0396 2.7939,0.0251 0.98618,-0.0129 2.1968,-0.053 2.6896,-0.0892 0.49331,-0.0358 1.2627,-0.10384 1.7097,-0.15054 0.44744,-0.0467 1.1606,-0.13135 1.5846,-0.1889 0.42451,-0.0572 1.1092,-0.16055 1.522,-0.22976 0.41283,-0.0692 1.0417,-0.18224 1.397,-0.25104 0.3557,-0.0692 0.93743,-0.19098 1.2927,-0.27105 0.3557,-0.0796 1.0187,-0.23853 1.4737,-0.35278 0.45495,-0.11426 1.2523,-0.33026 1.7722,-0.47997 0.51958,-0.1497 1.4704,-0.4466 2.1125,-0.66053 0.64218,-0.2135 1.5804,-0.54335 2.085,-0.73308 0.50457,-0.18932 1.314,-0.50958 1.7981,-0.71141 0.48455,-0.2014 1.2072,-0.51124 1.6054,-0.68763 0.39865,-0.1768 1.1472,-0.52459 1.663,-0.7731 0.51625,-0.24853 1.3173,-0.64802 1.7806,-0.88822 0.46329,-0.2402 1.1104,-0.59924 1.4386,-0.7977 0.32776,-0.19808 0.78022,-0.49206 1.005,-0.65261 0.22476,-0.16054 0.59673,-0.44161 0.82695,-0.62467 0.22976,-0.18306 0.61882,-0.53334 0.86482,-0.7785 0.24603,-0.24477 0.59006,-0.62383 0.76523,-0.84232 0.17472,-0.21809 0.42408,-0.56504 0.55419,-0.77145 0.13011,-0.206 0.32776,-0.56337 0.43952,-0.79395 0.11217,-0.23102 0.27022,-0.61925 0.35153,-0.8628 0.0817,-0.24353 0.18431,-0.61758 0.22852,-0.83153 0.0442,-0.21351 0.10008,-0.57045 0.12426,-0.79312 0.0242,-0.22268 0.0438,-0.5888 0.0438,-0.81315 -4.1e-4,-0.22434 -0.0288,-0.72725 -0.0634,-1.1171 -0.0346,-0.38989 -0.1939,-2.276 -0.35403,-4.1908 -0.15971,-1.9153 -0.35612,-4.1575 -0.43576,-4.9832 -0.0797,-0.82567 -0.18307,-1.839 -0.23018,-2.2518 -0.0467,-0.41283 -0.13303,-1.1355 -0.19099,-1.6054 -0.0583,-0.47037 -0.17139,-1.3052 -0.25103,-1.8556 -0.0801,-0.55044 -0.19224,-1.2823 -0.24937,-1.6263 -0.0572,-0.34402 -0.17973,-1.0292 -0.27188,-1.522 -0.0922,-0.49289 -0.25229,-1.2814 -0.35529,-1.7514 -0.10341,-0.47037 -0.2919,-1.2676 -0.4195,-1.7722 -0.12718,-0.50457 -0.35028,-1.321 -0.4954,-1.814 -0.14553,-0.49289 -0.40407,-1.319 -0.5742,-1.8348 -0.17056,-0.51624 -0.43577,-1.2852 -0.59006,-1.7097 -0.15388,-0.4245 -0.43576,-1.1655 -0.62633,-1.6472 -0.19016,-0.48163 -0.48831,-1.208 -0.66179,-1.6142 -0.17388,-0.40616 -0.5054,-1.1472 -0.73725,-1.6472 -0.23185,-0.49957 -0.63384,-1.3215 -0.89325,-1.826 -0.25895,-0.50457 -0.61632,-1.1801 -0.79395,-1.5012 -0.17722,-0.32109 -0.49206,-0.87487 -0.69973,-1.2302 -0.20724,-0.3557 -0.5642,-0.94657 -0.79357,-1.3136 -0.22893,-0.36696 -0.63676,-0.99577 -0.90653,-1.397 -0.26938,-0.40157 -0.69138,-1.0112 -0.93742,-1.3552 -0.24603,-0.34402 -0.68429,-0.93322 -0.97372,-1.3098 -0.2894,-0.37613 -0.82485,-1.042 -1.1893,-1.4804 -0.36488,-0.43785 -0.88823,-1.0458 -1.163,-1.3515 -0.27438,-0.30524 -0.7923,-0.8628 -1.1505,-1.2389 -0.3582,-0.37613 -0.96157,-0.97995 -1.3406,-1.3419 -0.37905,-0.36237 -0.87615,-0.82778 -1.105,-1.035 -0.22852,-0.20684 -0.67846,-0.60131 -0.99953,-0.87653 -0.32109,-0.2748 -0.86527,-0.72558 -1.2093,-1.0016 -0.34402,-0.27605 -0.85064,-0.6722 -1.1259,-0.88028 -0.27522,-0.20766 -0.78187,-0.57921 -1.1259,-0.82522 -0.34402,-0.24603 -0.94447,-0.65886 -1.3344,-0.91695 -0.38989,-0.25812 -0.96367,-0.62925 -1.2748,-0.8244 -0.3115,-0.19474 -0.771,-0.46913 -1.0216,-0.60924 -0.25062,-0.14012 -0.63009,-0.33026 -0.8436,-0.42242 -0.21309,-0.0926 -0.5321,-0.20642 -0.7089,-0.25395 -0.17639,-0.0471 -0.48998,-0.093 -0.69639,-0.10217 z m -87.51,46.233 c -0.46996,0.005 -0.9954,0.0134 -1.1676,0.0196 -0.1718,0.006 -0.67846,0.0317 -1.1259,0.0567 -0.44702,0.0254 -1.1038,0.0725 -1.4595,0.1055 -0.35528,0.0334 -1.0308,0.10842 -1.5012,0.16722 -0.46996,0.0592 -1.2393,0.17097 -1.7097,0.24895 -0.46996,0.078 -1.1738,0.20641 -1.5638,0.28564 -0.38989,0.0792 -1.0467,0.22143 -1.4595,0.3165 -0.41283,0.0951 -1.2572,0.29357 -1.8765,0.44077 -0.61925,0.14761 -1.379,0.33485 -1.6888,0.41617 -0.30941,0.0813 -0.86317,0.24894 -1.2302,0.37238 -0.36696,0.12343 -0.83153,0.30024 -1.0325,0.39281 -0.201,0.0926 -0.50124,0.25604 -0.66721,0.36279 -0.16596,0.10676 -0.40323,0.28023 -0.52708,0.38573 -0.12427,0.10508 -0.3311,0.32401 -0.45995,0.48622 -0.12885,0.16221 -0.31192,0.44453 -0.40658,0.62717 -0.0947,0.18306 -0.22768,0.49164 -0.29565,0.6868 -0.068,0.19473 -0.16305,0.52333 -0.21141,0.72975 -0.048,0.20641 -0.11593,0.56795 -0.15138,0.80317 -0.035,0.23518 -0.0922,0.72307 -0.12635,1.0842 -0.0342,0.36112 -0.0809,1.163 -0.10342,1.7822 -0.0229,0.61925 -0.0421,1.9754 -0.0421,3.0141 l -4.2e-4,1.8882 0.14679,1.1559 c 0.0809,0.63551 0.21267,1.5875 0.29273,2.115 0.0801,0.52751 0.21225,1.3436 0.29399,1.814 0.0813,0.46995 0.22267,1.2393 0.31441,1.7097 0.0913,0.46995 0.26938,1.324 0.39573,1.8973 0.12635,0.57338 0.35153,1.5304 0.50082,2.1267 0.14887,0.5963 0.36445,1.4211 0.4783,1.8327 0.11425,0.41158 0.32109,1.1246 0.45953,1.5846 0.13886,0.45996 0.39865,1.2769 0.57754,1.816 0.17931,0.53877 0.46662,1.3644 0.63927,1.8348 0.17263,0.47037 0.41658,1.1176 0.5421,1.4386 0.12552,0.3211 0.34986,0.87443 0.49831,1.2302 0.14887,0.35571 0.41117,0.96533 0.58338,1.3552 0.17222,0.3899 0.51333,1.1272 0.75893,1.6384 0.2452,0.51124 0.64384,1.309 0.88657,1.7722 0.24228,0.46371 0.58172,1.0959 0.7548,1.4057 0.17264,0.30942 0.47288,0.83483 0.66762,1.1676 0.19433,0.33235 0.55169,0.92363 0.79395,1.3136 0.24228,0.3899 0.67054,1.0525 0.95198,1.4728 0.28147,0.42034 0.75562,1.105 1.0542,1.522 0.29815,0.41701 0.78022,1.0676 1.0713,1.4462 0.29106,0.37822 0.73642,0.94118 0.98992,1.251 0.25312,0.30941 0.73767,0.88447 1.0762,1.2777 0.33903,0.39324 0.8628,0.98415 1.1647,1.3136 0.30149,0.32943 1.0479,1.0959 1.6588,1.7038 0.61048,0.60757 1.4098,1.3756 1.7764,1.7064 0.36696,0.33068 0.91117,0.81187 1.2098,1.0692 0.29857,0.2577 0.82942,0.70265 1.1797,0.9891 0.35028,0.28648 0.94658,0.75975 1.3256,1.0516 0.37863,0.2919 0.96787,0.73059 1.3094,0.97455 0.34152,0.24354 0.81442,0.56421 1.0504,0.71224 0.23643,0.14804 0.62466,0.36821 0.8628,0.48956 0.23811,0.12177 0.60381,0.27564 0.81315,0.34278 0.20933,0.0668 0.53209,0.14386 0.71766,0.17055 0.26062,0.0379 0.41283,0.0379 0.66636,-4.2e-4 0.18057,-0.0275 0.42284,-0.0872 0.53793,-0.13219 0.11551,-0.0455 0.32235,-0.15053 0.45996,-0.23352 0.13761,-0.0826 0.40991,-0.31108 0.60465,-0.50749 0.19515,-0.19641 0.48747,-0.55378 0.65052,-0.7944 0.16263,-0.24103 0.40949,-0.64426 0.54793,-0.89655 0.13844,-0.25228 0.40532,-0.7965 0.59297,-1.2093 0.18765,-0.41283 0.52459,-1.1072 0.74852,-1.5429 0.22393,-0.43576 0.55836,-1.0458 0.74309,-1.3552 0.18473,-0.30983 0.49957,-0.80692 0.69973,-1.105 0.20058,-0.29815 0.54669,-0.78607 0.76897,-1.0842 0.22268,-0.29815 0.59923,-0.77685 0.83648,-1.0634 0.23769,-0.2869 0.86482,-0.95407 1.394,-1.4828 0.52876,-0.52875 1.1876,-1.1492 1.4637,-1.3786 0.27606,-0.22935 0.72642,-0.5863 1.0008,-0.79312 0.27439,-0.20684 0.72392,-0.52668 0.99953,-0.71099 0.27522,-0.1839 0.77272,-0.49915 1.105,-0.69973 0.33235,-0.20099 1.0358,-0.57713 1.5633,-0.83647 0.5275,-0.25937 1.2406,-0.5838 1.5846,-0.72141 0.34402,-0.13761 0.85065,-0.32776 1.1259,-0.42242 0.27522,-0.0951 0.75975,-0.24728 1.0762,-0.33902 0.31692,-0.0917 0.81022,-0.22226 1.0963,-0.29065 0.28607,-0.0684 0.71182,-0.16221 0.9462,-0.2085 0.23394,-0.0463 0.65095,-0.11968 0.92618,-0.16305 0.27522,-0.0438 0.7539,-0.108 1.0634,-0.14345 0.30983,-0.035 0.9195,-0.0855 1.3552,-0.11217 0.47121,-0.0288 1.2401,-0.0388 1.8974,-0.0246 0.60799,0.0134 1.4149,0.0538 1.7931,0.0905 0.37864,0.0367 1.0112,0.113 1.4057,0.16972 0.39489,0.0563 1.0425,0.1693 1.4386,0.25062 0.39657,0.0817 0.9462,0.20474 1.2214,0.27354 0.27522,0.0692 0.82898,0.21935 1.2302,0.3336 0.40157,0.11468 1.1759,0.34862 1.7218,0.51959 0.54543,0.17138 1.399,0.45328 1.8974,0.62675 0.49789,0.17347 1.2902,0.45662 1.7602,0.62925 0.47038,0.17264 1.4837,0.56295 2.2518,0.86693 0.76852,0.30441 1.8473,0.74142 2.3978,0.97162 0.55044,0.22977 1.545,0.65261 2.2101,0.93908 0.66511,0.28647 1.9882,0.86235 2.9398,1.2802 0.95205,0.41741 2.012,0.88073 2.356,1.0296 0.34402,0.14846 0.90697,0.38322 1.251,0.52125 0.34402,0.13803 0.92572,0.36362 1.2927,0.50082 0.36696,0.13719 0.99577,0.36112 1.397,0.49748 0.40157,0.13636 1.1238,0.3678 1.6054,0.51416 0.48163,0.14637 1.1197,0.33277 1.4178,0.41408 0.29815,0.0813 0.9645,0.2502 1.4804,0.37572 0.51624,0.12551 1.3136,0.30357 1.7722,0.39573 0.4587,0.0922 1.228,0.23394 1.7097,0.31526 0.48163,0.0809 1.3165,0.20265 1.8556,0.27021 0.53918,0.0676 1.2989,0.15179 1.6888,0.18723 0.38989,0.035 0.99997,0.0838 1.3552,0.10759 0.3557,0.0241 1.294,0.055 2.085,0.0688 0.88695,0.0158 1.8465,0.007 2.502,-0.0238 0.58505,-0.0271 1.3919,-0.0771 1.7931,-0.11092 0.40157,-0.0342 1.1146,-0.10842 1.5846,-0.16554 0.47037,-0.0571 1.2418,-0.16889 1.7147,-0.24812 0.47288,-0.0792 1.1756,-0.211 1.5616,-0.29232 0.38615,-0.0813 1.0784,-0.24311 1.5383,-0.35987 0.45953,-0.11634 1.1922,-0.32109 1.628,-0.45494 0.43576,-0.13386 1.0834,-0.34528 1.4386,-0.4708 0.3557,-0.1251 0.92782,-0.33944 1.2718,-0.47663 0.34402,-0.13719 0.91657,-0.37739 1.2718,-0.53418 0.3557,-0.15637 1.0029,-0.46578 1.4386,-0.68721 0.43576,-0.22185 1.1021,-0.58089 1.4812,-0.79853 0.37864,-0.21726 0.96038,-0.57087 1.2927,-0.78562 0.33194,-0.21476 0.82898,-0.54878 1.1042,-0.74226 0.27522,-0.1935 0.76312,-0.5542 1.0842,-0.8019 0.32109,-0.24812 0.87322,-0.69973 1.2268,-1.0037 0.35361,-0.304 0.94282,-0.84442 1.3094,-1.2014 0.36654,-0.35653 0.9378,-0.94867 1.2702,-1.3156 0.33192,-0.36696 0.85192,-0.97702 1.1555,-1.3552 0.30317,-0.37864 0.70098,-0.89445 0.88403,-1.1468 0.18264,-0.25228 0.51958,-0.74017 0.74893,-1.0842 0.22935,-0.34402 0.55836,-0.86025 0.73142,-1.1468 0.17264,-0.2869 0.47538,-0.8148 0.67179,-1.1734 0.19682,-0.35904 0.45202,-0.84067 0.56754,-1.0708 0.1155,-0.22977 0.34819,-0.72433 0.51791,-1.0988 0.1693,-0.37447 0.42117,-0.9624 0.55961,-1.3065 0.13886,-0.34403 0.29941,-0.77648 0.35737,-0.9612 0.058,-0.18474 0.15221,-0.56004 0.20933,-0.834 0.0575,-0.27397 0.13428,-0.70473 0.17097,-0.957 0.0363,-0.25229 0.13136,-1.1063 0.21101,-1.8974 0.0796,-0.79103 0.15679,-1.5362 0.1718,-1.6555 l 0.0271,-0.21684 -0.43326,0.0179 c -0.23811,0.01 -1.08,0.0275 -1.8715,0.0388 -0.79102,0.0113 -1.645,0.0412 -1.8974,0.0668 -0.25228,0.025 -0.64468,0.0813 -0.8724,0.1251 -0.22768,0.0434 -0.67804,0.17097 -1.0008,0.28314 -0.32276,0.11217 -1.0187,0.35696 -1.5462,0.54335 -0.5275,0.1864 -1.3719,0.46954 -1.8765,0.62884 -0.50457,0.15971 -1.3114,0.40199 -1.7931,0.53876 -0.48163,0.13719 -1.1663,0.32443 -1.522,0.41658 -0.35528,0.0917 -1.0192,0.25312 -1.4745,0.35821 -0.45536,0.10508 -1.2401,0.2748 -1.7439,0.37739 -0.50332,0.10257 -1.4258,0.27105 -2.0492,0.37446 -0.62341,0.10341 -1.6492,0.2527 -2.2802,0.33151 -0.6305,0.0788 -1.5784,0.18182 -2.1058,0.22894 -0.5275,0.0476 -1.231,0.10425 -1.5638,0.12635 -0.33235,0.0221 -1.1864,0.0625 -1.8974,0.0892 -0.78607,0.0296 -1.8894,0.0384 -2.8148,0.0221 -0.83693,-0.0146 -1.9912,-0.0542 -2.5646,-0.0884 -0.57337,-0.0337 -1.2769,-0.0813 -1.5638,-0.10509 -0.28648,-0.0238 -0.71807,-0.0625 -0.9591,-0.0859 -0.24061,-0.0238 -0.75937,-0.0797 -1.1522,-0.12427 -0.39281,-0.0451 -0.9933,-0.11884 -1.3344,-0.16471 -0.34111,-0.0454 -0.87322,-0.12176 -1.183,-0.16931 -0.30983,-0.0479 -0.88193,-0.14261 -1.2718,-0.21058 -0.3899,-0.0679 -1.0934,-0.19932 -1.5638,-0.29148 -0.46996,-0.0922 -1.2302,-0.25187 -1.6888,-0.35487 -0.4587,-0.103 -1.1438,-0.26271 -1.522,-0.35528 -0.37822,-0.0926 -1.1101,-0.28106 -1.6263,-0.41867 -0.51583,-0.13761 -1.3323,-0.37155 -1.814,-0.51958 -0.48163,-0.14804 -1.1008,-0.34528 -1.3761,-0.43827 -0.27522,-0.0934 -0.85695,-0.29774 -1.2927,-0.45495 -0.43577,-0.15679 -1.1768,-0.43785 -1.6472,-0.62424 -0.46996,-0.1864 -1.2865,-0.52751 -1.814,-0.75765 -0.52751,-0.23019 -1.2593,-0.55962 -1.6263,-0.73143 -0.36696,-0.17222 -1.183,-0.57254 -1.814,-0.88987 -0.6305,-0.31734 -1.4657,-0.74894 -1.8556,-0.9591 -0.38989,-0.21017 -1.1801,-0.65135 -1.7564,-0.97995 -0.5763,-0.32902 -1.3832,-0.79898 -1.7931,-1.0442 -0.40992,-0.24561 -1.0834,-0.65636 -1.4962,-0.91238 -0.41283,-0.25645 -1.0976,-0.68847 -1.522,-0.95992 -0.42408,-0.27188 -1.2043,-0.7785 -1.733,-1.1264 -0.52917,-0.34736 -1.4674,-0.9762 -2.085,-1.397 -0.61799,-0.42034 -1.6392,-1.1209 -2.2702,-1.5567 -0.6305,-0.43577 -1.8315,-1.2706 -2.6688,-1.8561 -0.83692,-0.58505 -2.1692,-1.5133 -2.9607,-2.0625 -0.79102,-0.54919 -2.1796,-1.4908 -3.0858,-2.0925 -0.9057,-0.60173 -2.0504,-1.3469 -2.5437,-1.6563 -0.49289,-0.30941 -1.3052,-0.80895 -1.8048,-1.1104 -0.49957,-0.30149 -1.2406,-0.73934 -1.6472,-0.97245 -0.40657,-0.23352 -1.1797,-0.66595 -1.7188,-0.96075 -0.53876,-0.29482 -1.5146,-0.8052 -2.1684,-1.1347 -0.65344,-0.32943 -1.4979,-0.74392 -1.8765,-0.92115 -0.39675,-0.171 -1.026,-0.45675 -1.416,-0.62775 -0.39,-0.17175 -1.101,-0.47175 -1.5802,-0.66675 -0.47925,-0.19425 -1.1738,-0.46725 -1.5428,-0.606 -0.369,-0.13875 -1.1408,-0.41025 -1.7138,-0.60375 -0.57375,-0.19275 -1.521,-0.48975 -2.106,-0.6585 -0.585,-0.16875 -1.4108,-0.39225 -1.8352,-0.4965 -0.42375,-0.1035 -1.128,-0.264 -1.5638,-0.3555 -0.43575,-0.0915 -1.0545,-0.2145 -1.3755,-0.27225 -0.32175,-0.0585 -0.89325,-0.1515 -1.272,-0.2085 -0.378,-0.0562 -1.0162,-0.1395 -1.4182,-0.186 -0.4005,-0.0457 -1.0762,-0.1125 -1.5008,-0.14775 -0.42409,-0.0354 -1.2218,-0.083 -1.7722,-0.10591 -0.55044,-0.0229 -1.3852,-0.0379 -1.8556,-0.0338 z m 35.591,51.54 c -0.43576,0.005 -0.88613,0.0134 -1.0008,0.0208 -0.11467,0.007 -0.48038,0.0425 -0.81315,0.0788 -0.33235,0.0358 -0.85777,0.11175 -1.1676,0.16847 -0.30941,0.0567 -0.82567,0.17055 -1.1468,0.25269 -0.32109,0.0826 -0.85567,0.2427 -1.1884,0.35571 -0.33235,0.11301 -0.82778,0.29941 -1.1005,0.41408 -0.27272,0.11467 -0.72308,0.3215 -1.0008,0.45995 -0.27772,0.13802 -0.78644,0.41909 -1.1305,0.62425 -0.34402,0.20516 -0.84773,0.52917 -1.1197,0.71974 -0.27189,0.19057 -0.7406,0.54168 -1.0417,0.78022 -0.30107,0.23852 -0.83985,0.72433 -1.1976,1.08 -0.35779,0.35529 -0.7773,0.8061 -0.9324,1.0008 -0.15512,0.19474 -0.43243,0.57963 -0.61591,0.85485 -0.18348,0.27522 -0.4687,0.77228 -0.63384,1.105 -0.16471,0.33235 -0.35945,0.77355 -0.43285,0.97995 -0.073,0.20642 -0.17973,0.55336 -0.23643,0.77145 -0.0567,0.21768 -0.13636,0.57421 -0.1764,0.7923 -0.0542,0.29524 -0.073,0.61883 -0.073,1.2718 -4.1e-4,0.73309 0.0146,0.95618 0.0926,1.3699 0.0517,0.27188 0.16097,0.70347 0.24353,0.9591 0.0826,0.25562 0.2281,0.64301 0.32401,0.86107 0.0955,0.21768 0.28147,0.57921 0.41325,0.80273 0.13177,0.22393 0.38364,0.59922 0.56003,0.834 0.17639,0.23518 0.5371,0.64468 0.80107,0.9099 0.26438,0.26562 0.65928,0.62467 0.87698,0.79815 0.21767,0.17347 0.63092,0.46912 0.9174,0.65718 0.2869,0.18766 0.89655,0.52626 1.3552,0.75225 0.4587,0.2256 1.1813,0.56045 1.6054,0.74351 0.42451,0.18265 1.0717,0.4537 1.4386,0.60173 0.36696,0.14804 1.005,0.39615 1.4178,0.55127 0.41283,0.15513 1.2481,0.44787 1.8556,0.65011 0.60799,0.20225 1.5274,0.48914 2.0433,0.63759 0.51625,0.14846 1.3136,0.36446 1.7722,0.47997 0.4587,0.11551 1.1251,0.27563 1.4804,0.3557 0.3557,0.0797 1.0404,0.22059 1.522,0.31275 0.48163,0.0922 1.1197,0.20642 1.4178,0.25395 0.29815,0.0479 0.87067,0.13219 1.2723,0.18766 0.40115,0.055 1.0934,0.13886 1.5375,0.18598 0.4441,0.0471 1.1852,0.11384 1.6467,0.14804 0.46162,0.0342 1.2994,0.0805 1.861,0.10341 0.56212,0.0225 1.397,0.0413 1.8556,0.0413 0.4587,0 1.3031,-0.0188 1.8765,-0.0417 0.57337,-0.0225 1.4366,-0.07 1.9182,-0.10508 0.48163,-0.0346 1.3073,-0.11093 1.8348,-0.16889 0.5275,-0.058 1.344,-0.16096 1.814,-0.22894 0.47037,-0.0676 1.08,-0.16137 1.3552,-0.20808 0.27522,-0.0463 0.93202,-0.1693 1.4595,-0.27313 0.5275,-0.10384 1.4362,-0.30024 2.0192,-0.43702 0.58338,-0.13677 1.5216,-0.36904 2.085,-0.51625 0.56378,-0.1472 1.5596,-0.41991 2.2134,-0.60548 0.65385,-0.18598 1.6859,-0.48872 2.2935,-0.67303 0.60756,-0.1839 1.668,-0.51291 2.356,-0.73059 0.68805,-0.21726 1.7952,-0.57379 2.4603,-0.79185 0.66511,-0.2181 2.0254,-0.66554 3.0232,-0.99458 0.99787,-0.32901 2.5082,-0.82357 3.3568,-1.0992 0.84862,-0.27563 2.1154,-0.68304 2.8148,-0.90487 0.69972,-0.22185 1.2769,-0.40782 1.2827,-0.41283 0.006,-0.005 -0.20934,-0.20475 -0.47788,-0.44327 -0.26897,-0.23894 -0.9495,-0.8832 -1.5121,-1.432 -0.56295,-0.54919 -1.1405,-1.095 -1.2839,-1.2135 -0.14387,-0.11843 -0.35362,-0.26563 -0.46662,-0.32693 -0.14471,-0.0788 -0.30858,-0.12343 -0.55253,-0.15012 -0.19057,-0.0208 -0.60924,-0.0592 -0.9303,-0.0855 -0.32109,-0.0259 -1.0241,-0.10217 -1.5621,-0.16889 -0.53793,-0.0671 -1.3823,-0.1889 -1.8765,-0.27063 -0.49414,-0.0817 -1.3018,-0.2306 -1.7948,-0.3311 -0.49289,-0.10008 -1.2176,-0.25771 -1.6105,-0.34986 -0.3924,-0.0926 -0.9741,-0.23602 -1.2927,-0.31859 -0.31818,-0.0826 -0.94448,-0.25395 -1.3919,-0.38072 -0.44702,-0.12677 -1.2823,-0.37739 -1.8556,-0.55711 -0.57337,-0.18015 -1.502,-0.48581 -2.0642,-0.6793 -0.5617,-0.19391 -1.4999,-0.53084 -2.085,-0.74893 -0.58463,-0.21809 -1.495,-0.56545 -2.0224,-0.7719 -0.5275,-0.20599 -1.5971,-0.63801 -2.3769,-0.95955 -0.77977,-0.32151 -3.0408,-1.279 -5.0248,-2.1272 -1.9837,-0.84862 -4.1729,-1.7789 -4.8647,-2.0674 -0.6918,-0.28856 -1.7802,-0.73266 -2.4186,-0.987 -0.63843,-0.25437 -1.6059,-0.62925 -2.1496,-0.83317 -0.54377,-0.20391 -1.2568,-0.4537 -1.5846,-0.55545 -0.32777,-0.10133 -0.8961,-0.26062 -1.2631,-0.35402 -0.36696,-0.0934 -0.96742,-0.22519 -1.3344,-0.29316 -0.36696,-0.0676 -0.91117,-0.15303 -1.2093,-0.18973 -0.29815,-0.0367 -0.79522,-0.0851 -1.105,-0.10801 -0.30941,-0.0225 -0.9195,-0.038 -1.3552,-0.0338 z"
       id="icon" /></g><path
     id="path20"
     filter="url(#noise)"
     d="m507.42 125.69c-0.73797 0.0303-3.0134 0.1296-5.0566 0.22283-2.0416 0.0932-5.5625 0.31263-7.8223 0.48634-2.2597 0.17394-5.46 0.45668-7.1113 0.62892-1.6513 0.17242-4.9569 0.56221-7.3477 0.86715-2.3893 0.30506-6.1953 0.84257-8.455 1.1934-2.2597 0.35243-5.4854 0.88296-7.1699 1.1817-1.6846 0.29861-4.2451 0.79765-5.6894 1.1074-1.4443 0.30809-3.9061 0.87883-5.4707 1.2676-1.5644 0.38714-3.7686 0.95939-4.8984 1.2676-1.1298 0.30809-3.3699 0.9462-4.9785 1.4219-1.6071 0.47566-4.7002 1.4367-6.873 2.1367-2.1728 0.70004-6.1553 2.0421-8.8496 2.9824-2.6943 0.94026-8.3839 2.9683-12.643 4.5059-4.2587 1.5376-9.7683 3.5056-12.246 4.373-2.4762 0.86913-5.819 2.0132-7.4277 2.541-1.6071 0.52777-2.9484 0.97827-2.9785 1.002-0.0303 0.0227 0.3168 2.0946 0.77344 4.6055l0.83006 4.5644 3.0977 1.4785c1.7035 0.81381 3.7033 1.7398 4.4414 2.0605 0.73957 0.32098 3.7973 1.4741 6.7949 2.5645 2.9976 1.0903 7.6552 2.7986 10.35 3.7988 2.6943 0.99869 10.837 4.0341 18.094 6.7442 7.258 2.7117 15.791 5.8898 18.963 7.0625 3.173 1.1741 9.0053 3.3053 12.959 4.7383 3.9554 1.4332 10.142 3.6393 13.748 4.9004 3.6076 1.2626 9.6144 3.3149 13.352 4.5586 3.7372 1.2436 9.1789 3.0068 12.09 3.9199 2.9123 0.91494 6.7149 2.0883 8.4532 2.6113 1.7382 0.52147 4.4262 1.3103 5.9746 1.748 1.547 0.43932 4.2502 1.1155 6.0058 1.5058 1.7541 0.38876 4.4706 0.91896 6.0352 1.1797 1.5644 0.26072 3.9824 0.61758 5.3731 0.79296 1.3906 0.17697 3.7015 0.42667 5.1347 0.55468 1.4349 0.1296 4.1718 0.3187 6.084 0.41992 2.2076 0.11671 5.9284 0.14817 10.193 0.0898 3.6945-0.0504 7.711-0.16409 8.9278-0.2558 1.2167-0.0917 3.4208-0.2755 4.8984-0.40817 1.4775-0.13263 4.0598-0.41825 5.7363-0.63478 1.6782-0.21487 3.8469-0.56324 4.8203-0.77344 0.97346-0.21184 2.6231-0.64294 3.666-0.95898 1.043-0.31756 2.6788-0.89638 3.6348-1.2852 0.95602-0.39028 2.5426-1.1314 3.5254-1.6465 0.98448-0.51356 2.4777-1.3822 3.3184-1.9258 0.84222-0.54357 2.2421-1.5535 3.1113-2.2441 0.86912-0.69212 2.233-1.9194 3.0293-2.7285 0.798-0.80751 1.8939-2.0182 2.4375-2.6914 0.54361-0.67317 1.4789-1.973 2.0762-2.8848 0.59734-0.91339 1.5056-2.5117 2.0176-3.5547 0.51356-1.043 1.1525-2.4919 1.418-3.2188 0.26565-0.72691 0.65502-1.9349 0.86522-2.6855 0.20843-0.75063 0.52307-2.1136 0.69531-3.0254 0.17394-0.91339 0.40188-2.5087 0.50779-3.5468 0.11862-1.1773 0.15689-2.9951 0.10156-4.8203-0.0489-1.6118-0.20274-3.6066-0.34181-4.4316-0.13908-0.82646-0.45732-2.2845-0.70701-3.2422-0.24973-0.95765-0.74908-2.4847-1.1094-3.3965-0.3619-0.9118-0.97724-2.2641-1.3692-3.002-0.3935-0.73957-1.1629-2.0189-1.7129-2.8437-0.5499-0.82646-1.6863-2.3009-2.5254-3.2774-0.84071-0.97656-2.1519-2.3331-2.9121-3.0156-0.76007-0.68265-1.935-1.6795-2.6113-2.2168-0.67477-0.53569-2.129-1.5711-3.2305-2.3028-1.1014-0.73005-2.9269-1.8441-4.0567-2.4746-1.1299-0.6305-2.9086-1.555-3.9531-2.0528-1.0446-0.49775-2.7766-1.2699-3.8496-1.7187-1.0714-0.4472-2.9899-1.2082-4.2618-1.6934-1.2737-0.48354-3.4159-1.2662-4.7637-1.7402-1.3464-0.47248-3.6591-1.2405-5.1367-1.7051-1.4775-0.46615-4.2161-1.2711-6.084-1.791-1.8678-0.51834-4.9271-1.3033-6.7949-1.7441-1.8678-0.43928-4.6779-1.0559-6.2422-1.3672-1.5644-0.31302-4.3369-0.81577-6.1621-1.1192-1.8252-0.30165-5.2391-0.79311-7.5859-1.0918-2.3466-0.29709-6.0065-0.68431-8.1367-0.86132-2.1285-0.17697-5.1863-0.39623-6.7949-0.48631-1.6071-0.0883-6.0528-0.18531-9.877-0.21676v-0.002c-3.8241-0.0303-7.5574-0.0341-8.2969-0.002zm151.46 51.654 0.004 0.004c-0.7822-0.0341-1.707-0.002-2.0547 0.0743-0.3475 0.0758-0.99308 0.27398-1.4356 0.44141-0.44405 0.16901-1.1422 0.5394-1.5546 0.82225-0.41086 0.2827-1.1353 0.90827-1.6094 1.3887-0.47407 0.48195-1.2509 1.4618-1.7266 2.1777-0.47726 0.7174-1.2148 2.0407-1.6367 2.9414-0.42197 0.90073-1.245 2.9894-1.8282 4.6406-0.58309 1.6513-1.4089 3.8723-1.834 4.9355-0.42507 1.0635-1.215 2.9061-1.7539 4.0898-0.54042 1.1852-1.664 3.4081-2.5 4.9395-0.83437 1.5328-2.1369 3.7674-2.8906 4.9668-0.75533 1.1994-2.0382 3.1183-2.8535 4.2656-0.81543 1.1472-2.1083 2.8681-2.8731 3.8242-0.76643 0.95606-2.1108 2.5563-2.9863 3.5566-0.87542 0.99869-2.6578 2.8858-3.9629 4.1895-1.3053 1.3053-3.4254 3.2761-4.7149 4.3808-1.2895 1.1046-3.2083 2.6579-4.2656 3.4512-1.0572 0.79485-3.0253 2.1754-4.373 3.0684-1.3463 0.8944-3.408 2.1792-4.582 2.8554-1.1741 0.67476-3.3427 1.8115-4.8203 2.5274-1.4775 0.71425-3.8616 1.7644-5.2949 2.3301s-3.6281 1.3561-4.875 1.7559c-1.2484 0.3998-3.4152 1.0074-4.8184 1.3535-1.4032 0.34599-3.5827 0.80494-4.8438 1.0215-1.2594 0.21638-3.321 0.51825-4.582 0.66995-1.7051 0.20388-3.5475 0.27664-7.1914 0.28118-3.7295 0.004-5.5011-0.0618-7.4258-0.28118-1.3906-0.15651-4.2364-0.52909-6.3223-0.82619s-5.1739-0.79342-6.8633-1.1015c-1.6893-0.30809-4.7843-0.92044-6.875-1.3614-2.0907-0.43929-5.7556-1.287-8.1465-1.8828-2.3893-0.59417-5.5556-1.4092-7.0332-1.8106-1.4775-0.40138-3.9295-1.0854-5.4512-1.5215-1.5202-0.43459-3.833-1.1101-5.1368-1.5019-1.3037-0.39033-3.6505-1.1036-5.2148-1.584-1.5644-0.4804-5.0478-1.5709-7.7422-2.4258-2.6943-0.85333-7.459-2.3704-10.588-3.3691-3.1349-1.0061-6.9375-2.2141-8.4609-2.6973-1.5177-0.48033-6.0371-1.8666-10.033-3.0859-3.9989-1.2164-9.1175-2.7884-11.377-3.4961-2.2595-0.70769-7.2015-2.2797-10.984-3.4961-3.7801-1.2136-19.319-6.3644-34.527-11.443l-27.654-9.2324-4.1641 0.39063c-2.2898 0.21486-5.5969 0.57172-7.3476 0.79296-1.7509 0.22131-4.5703 0.61693-6.2656 0.88084-1.694 0.26564-4.6444 0.79227-6.5566 1.1699-1.912 0.37925-4.8071 1.0108-6.4316 1.4043-1.6245 0.39347-4.1832 1.0709-5.6875 1.5039-1.5044 0.4314-3.8018 1.1389-5.1055 1.5703s-3.4011 1.1755-4.6621 1.6543c-1.2594 0.47722-3.3229 1.3084-4.584 1.8457-1.2594 0.53728-3.5704 1.6085-5.1347 2.3828-1.5644 0.77431-3.9824 2.0558-5.3731 2.8476-1.3906 0.79171-3.7372 2.2391-5.2148 3.2188-1.4775 0.97975-3.4322 2.3362-4.3457 3.0156-0.91176 0.67951-2.2285 1.6926-2.9238 2.252-0.6953 0.55941-2.224 1.855-3.3965 2.8789-1.1725 1.0256-3.5575 3.3119-5.2988 5.08-1.7414 1.7682-3.8085 3.9615-4.5937 4.875-0.78538 0.9118-2.0566 2.4398-2.8262 3.3926-0.76958 0.95447-2.089 2.6615-2.9297 3.793-0.84067 1.133-2.2474 3.0905-3.1211 4.3516-0.87386 1.2594-2.4357 3.6417-3.4707 5.293-1.0367 1.6514-2.563 4.1761-3.3926 5.6094-0.82965 1.4333-2.1833 3.8513-3.0098 5.373-0.82487 1.5202-2.5036 4.7689-3.7266 7.2168-1.2247 2.4493-2.9318 5.9686-3.793 7.8223-0.8612 1.8536-2.1024 4.5842-2.7598 6.0664-0.65737 1.4838-1.4211 3.2622-1.6992 3.9512-0.27664 0.69056-0.81949 2.1786-1.2051 3.3086-0.38555 1.1298-0.90733 2.8724-1.1602 3.8711-0.25124 0.99874-0.57112 2.4939-0.70701 3.3203-0.13605 0.8249-0.2899 2.3593-0.34371 3.4102-0.0603 1.182-0.0227 2.5045 0.0997 3.4746 0.10763 0.86124 0.36948 2.1564 0.57813 2.877 0.20843 0.71903 0.65559 1.8574 0.99218 2.5274 0.33802 0.67158 0.94545 1.6623 1.3516 2.2012 0.40609 0.54046 1.2126 1.4182 1.791 1.9492 0.57836 0.52936 1.5167 1.2723 2.084 1.6484 0.56729 0.3763 1.61 0.97451 2.3164 1.3301 0.70792 0.35546 1.9179 0.88732 2.6875 1.1797 0.77113 0.29407 2.2538 0.7509 3.2968 1.0195 1.043 0.26716 2.6787 0.62853 3.6348 0.80076 0.95606 0.17243 2.3441 0.38995 3.082 0.48635 0.73957 0.0947 2.126 0.24291 3.0821 0.33007 0.95603 0.0853 3.9424 0.20047 6.6367 0.2539 3.0578 0.0618 9.4949-0.008 17.129-0.17962 8.508-0.19441 14.784-0.25125 20.623-0.18948 4.6142 0.0489 9.422 0.16446 10.682 0.25579 1.261 0.0917 3.4652 0.27777 4.8985 0.41211 1.4349 0.13415 3.832 0.42144 5.3301 0.63475 1.4964 0.21487 3.7007 0.56941 4.8984 0.78906 1.1962 0.21979 3.3499 0.6906 4.7832 1.043 1.4348 0.35091 3.96 1.086 5.6113 1.6328 1.6514 0.54676 4.1073 1.4577 5.457 2.0235 1.3495 0.5657 4.4072 1.8813 6.7949 2.9258 2.3877 1.043 6.3677 2.8187 8.8437 3.9453 2.4778 1.1251 6.603 3.0326 9.166 4.2382 2.5632 1.2042 8.8921 4.3047 14.063 6.8868 5.1704 2.5821 11.715 5.9144 14.539 7.4062 2.8254 1.4918 7.4816 3.995 10.35 5.5625 2.868 1.5676 7.4209 4.098 10.115 5.6211 2.6943 1.5249 6.7835 3.8716 9.0859 5.2148 2.304 1.3448 5.8586 3.4422 7.9004 4.6621 2.0433 1.2184 6.2022 3.7434 9.2442 5.6113 3.042 1.8678 7.844 4.8678 10.668 6.666 2.8255 1.7967 6.9844 4.4775 9.2441 5.9531 2.2597 1.4775 6.9174 4.5334 10.35 6.793 3.4339 2.2581 7.559 4.9239 9.166 5.9258 1.6087 1.0002 4.1863 2.5763 5.7304 3.5039 1.5423 0.9276 4.5322 2.6732 6.6465 3.8789 2.1128 1.2057 5.3317 2.9949 7.1504 3.9746 1.8189 0.9813 5.5482 2.9033 8.2852 4.2734 2.7385 1.3701 6.44 3.1674 8.2285 3.9922 1.7888 0.82646 4.5972 2.0819 6.2422 2.793 1.645 0.71111 4.5546 1.9195 6.4668 2.6875 1.9121 0.76639 4.6507 1.8315 6.084 2.3672 1.4333 0.53568 4.5978 1.647 7.0313 2.4687 2.4336 0.82328 5.9902 1.958 7.9023 2.5254 1.9121 0.5657 5.0695 1.4517 7.0195 1.9668 1.95 0.51518 5.2927 1.3275 7.4278 1.8047 2.1348 0.47725 5.0215 1.0841 6.4121 1.3496 1.3906 0.26716 3.8068 0.69284 5.3711 0.94727 1.5644 0.25427 3.8774 0.60549 5.1367 0.77931 1.261 0.17394 3.5704 0.45899 5.1347 0.63282 1.5644 0.17394 4.1964 0.42511 5.8477 0.55467 1.6514 0.1296 4.7091 0.31681 6.7949 0.41799 2.3561 0.11368 6.3656 0.15082 10.588 0.0959 3.7372-0.0489 8.3236-0.20084 10.191-0.33802 1.8694-0.13567 4.7866-0.39529 6.4805-0.57226 1.6956-0.17697 4.397-0.49677 6.0039-0.71486 1.6087-0.21676 4.2033-0.60882 5.7676-0.8711 1.5644-0.26223 3.9486-0.69045 5.2949-0.95117 1.3479-0.26224 3.5522-0.72391 4.8984-1.0273 1.3479-0.30165 3.8599-0.90297 5.584-1.3359 1.724-0.433 4.7464-1.253 6.7168-1.8203 1.969-0.5673 5.5724-1.6913 8.0058-2.5019 2.4336-0.80906 5.9882-2.0584 7.9004-2.7773 1.9121-0.71744 4.9798-1.9324 6.8144-2.6973 1.8362-0.76321 4.5748-1.937 6.084-2.6055 1.5107-0.66999 4.3462-1.988 6.3008-2.9297 1.9564-0.94181 4.9924-2.455 6.7481-3.3652 1.7556-0.91024 4.2074-2.2714 5.4512-3.0234 1.242-0.75063 2.9568-1.8643 3.8086-2.4727 0.85173-0.60837 2.2624-1.6734 3.1348-2.3672 0.87069-0.69371 2.3451-2.0221 3.2773-2.9512 0.93234-0.92756 2.2346-2.3634 2.8985-3.1914 0.66211-0.82646 1.6085-2.1416 2.1016-2.9238 0.49306-0.78064 1.2405-2.134 1.6641-3.0078 0.42507-0.87546 1.0259-2.3466 1.334-3.2695 0.3096-0.92287 0.69769-2.3416 0.86522-3.1523 0.1675-0.8091 0.37907-2.1621 0.4707-3.0059 0.0917-0.84386 0.16598-2.2299 0.16598-3.0801-0.002-0.85014-0.10914-2.7569-0.24025-4.2344-0.13112-1.4775-0.73498-8.6246-1.3418-15.881-0.60523-7.258-1.3486-15.754-1.6504-18.883-0.30202-3.1289-0.6945-6.9708-0.87303-8.5352-0.17697-1.5644-0.50499-4.3012-0.72463-6.082-0.22093-1.7825-0.64938-4.9473-0.95117-7.0332-0.30354-2.0859-0.72684-4.8584-0.94333-6.1621-0.21676-1.3037-0.68204-3.8997-1.0312-5.7676-0.34939-1.8678-0.95541-4.8578-1.3457-6.6387-0.39188-1.7824-1.1063-4.8026-1.5898-6.7148-0.48196-1.9121-1.327-5.0072-1.877-6.875-0.55149-1.8678-1.533-4.9983-2.1777-6.9532-0.64634-1.9563-1.6497-4.8698-2.2344-6.4785-0.58313-1.6087-1.6528-4.417-2.375-6.2422-0.72062-1.8252-1.8504-4.5779-2.5078-6.1172-0.65892-1.5392-1.9144-4.3476-2.793-6.2422-0.8786-1.8931-2.4017-5.006-3.3848-6.918-0.9813-1.9121-2.3366-4.4727-3.0098-5.6894-0.67158-1.2168-1.8634-3.3158-2.6504-4.6621-0.78535-1.3479-2.1386-3.5879-3.0078-4.9785-0.86754-1.3906-2.4132-3.7727-3.4356-5.293-1.0208-1.5218-2.6204-3.8311-3.5527-5.1348-0.93234-1.3037-2.5926-3.5378-3.6894-4.9649-1.0967-1.4254-3.1248-3.9484-4.5059-5.6094-1.3827-1.6592-3.3668-3.9626-4.4082-5.1211-1.0398-1.1567-3.002-3.27-4.3594-4.6953-1.3574-1.4254-3.6437-3.7143-5.0801-5.0859-1.4364-1.3732-3.3201-3.1366-4.1875-3.9219-0.86599-0.78383-2.5724-2.2774-3.7891-3.3203-1.2168-1.0414-3.2783-2.7508-4.582-3.7968-1.3037-1.0461-3.2245-2.5474-4.2676-3.336-1.043-0.78693-2.9619-2.1947-4.2656-3.1269-1.3037-0.93234-3.579-2.4966-5.0566-3.4746-1.4775-0.97815-3.6531-2.3855-4.832-3.125-1.1804-0.73797-2.9212-1.7777-3.8711-2.3086-0.94974-0.53099-2.3882-1.2504-3.1973-1.5996-0.80751-0.35091-2.0156-0.78276-2.6856-0.96288-0.66844-0.17848-1.8565-0.35204-2.6387-0.38672zm-331.61 175.21c-1.7809 0.019-3.7732 0.0508-4.4258 0.0743-0.65105 0.0227-2.57 0.12013-4.2656 0.21487-1.694 0.0963-4.1832 0.2755-5.5313 0.40036-1.3463 0.12658-3.9068 0.41196-5.6894 0.63479-1.7809 0.22434-4.6959 0.64786-6.4785 0.94336-1.7809 0.29559-4.4482 0.78178-5.9258 1.082-1.4775 0.30013-3.9669 0.83896-5.5312 1.1992-1.5644 0.36039-4.7646 1.1121-7.1113 1.6699-2.3467 0.55937-5.2263 1.27-6.4004 1.5782-1.1725 0.30809-3.2695 0.94238-4.6601 1.4102-1.3906 0.46774-3.1524 1.1375-3.9141 1.4883-0.76166 0.35091-1.8984 0.97046-2.5273 1.375-0.62895 0.40457-1.5287 1.0631-1.9981 1.4629-0.47093 0.39821-1.2539 1.2271-1.7422 1.8418-0.48828 0.6147-1.1823 1.6848-1.541 2.3769-0.35886 0.69372-0.86352 1.862-1.1211 2.6016-0.25769 0.73794-0.61747 1.9834-0.80077 2.7656-0.18189 0.7822-0.43988 2.1536-0.57422 3.0449-0.13264 0.89122-0.34902 2.7389-0.47851 4.1074-0.1296 1.3685-0.30543 4.4074-0.39062 6.7539-0.0868 2.3467-0.1603 7.4855-0.1603 11.422l-0.002 7.1563 0.55665 4.3789c0.30657 2.4083 0.80599 6.0168 1.1094 8.0156 0.30354 1.999 0.80353 5.0924 1.1133 6.875 0.30809 1.7809 0.84374 4.6959 1.1914 6.4785 0.34598 1.7809 1.0212 5.0166 1.5 7.1895 0.4788 2.1728 1.3327 5.7988 1.8984 8.0586 0.56415 2.2597 1.3811 5.3856 1.8125 6.9453 0.43299 1.5597 1.2156 4.2628 1.7402 6.0058 0.52625 1.743 1.5116 4.8377 2.1895 6.8809 0.67946 2.0417 1.7676 5.1705 2.4218 6.9531 0.65422 1.7825 1.579 4.2364 2.0547 5.4531 0.47566 1.2168 1.3261 3.3122 1.8887 4.6602 0.56415 1.348 1.5583 3.6591 2.211 5.1367 0.65263 1.4775 1.9443 4.2718 2.875 6.209 0.92919 1.9374 2.4396 4.9592 3.3594 6.7149 0.91813 1.7572 2.2054 4.154 2.8613 5.3281 0.65419 1.1726 1.7913 3.1628 2.5293 4.4238 0.73642 1.2594 2.0917 3.5009 3.0098 4.9785 0.91812 1.4775 2.5409 3.989 3.6074 5.5821 1.0666 1.5929 2.8627 4.1874 3.9941 5.7676 1.1299 1.5803 2.9575 4.0457 4.0606 5.4804 1.103 1.4333 2.7894 3.5661 3.75 4.7402 0.9592 1.1725 2.797 3.3516 4.0801 4.8418 1.2847 1.4902 3.2681 3.7282 4.4121 4.9766 1.1425 1.2484 3.9719 4.1532 6.2871 6.4571 2.3135 2.3024 5.3432 5.2134 6.7324 6.4668 1.3906 1.2531 3.4525 3.0776 4.584 4.0527 1.1315 0.97657 3.1434 2.6626 4.4707 3.7481 1.3274 1.0856 3.587 2.8782 5.0234 3.9844 1.4349 1.1062 3.6669 2.7689 4.961 3.6934 1.2942 0.92291 3.086 2.1382 3.9805 2.6992 0.89596 0.561 2.3671 1.3956 3.2695 1.8555 0.90233 0.46145 2.2888 1.0444 3.082 1.2988 0.79326 0.25314 2.0175 0.54535 2.7207 0.6465 0.98763 0.14362 1.5626 0.14324 2.5234-0.002 0.68424-0.10421 1.6029-0.32968 2.039-0.49999 0.43773-0.17242 1.2227-0.57221 1.7442-0.88671 0.52148-0.31301 1.5531-1.1776 2.291-1.9219 0.73956-0.7443 1.847-2.0998 2.4649-3.0117 0.61629-0.91339 1.5516-2.4404 2.0762-3.3965 0.52462-0.95602 1.5369-3.0177 2.248-4.582 0.7111-1.5644 1.9874-4.1964 2.836-5.8477 0.84855-1.6513 2.1163-3.9641 2.8164-5.1368 0.70004-1.1741 1.8919-3.0577 2.6504-4.1875 0.76011-1.1298 2.0717-2.9777 2.9141-4.1074 0.84382-1.1298 2.2709-2.9436 3.1699-4.0293 0.90073-1.0872 3.2778-3.6154 5.2832-5.6192 2.0038-2.0037 4.5007-4.3554 5.5469-5.2246 1.0461-0.86913 2.7532-2.2221 3.793-3.0059 1.0398-0.78379 2.7427-1.9949 3.7871-2.6933 1.043-0.69689 2.9281-1.8923 4.1875-2.6524 1.2594-0.76165 3.9249-2.1871 5.9238-3.1699 1.999-0.98289 4.7022-2.2129 6.0059-2.7344 1.3037-0.52148 3.2225-1.2409 4.2656-1.5996 1.043-0.36038 2.8787-0.93753 4.0781-1.2852 1.201-0.3475 3.0703-0.84238 4.1543-1.1015 1.084-0.25921 2.6977-0.61561 3.5859-0.79103 0.88652-0.17545 2.4668-0.45285 3.5098-0.6172 1.043-0.16598 2.8567-0.40862 4.0293-0.54296 1.1741-0.13264 3.4855-0.32477 5.1368-0.42579 1.7857-0.10914 4.6989-0.14742 7.1894-0.0936 2.304 0.0508 5.3616 0.20464 6.7949 0.34371 1.4349 0.13908 3.8332 0.42761 5.3282 0.64256 1.4964 0.21335 3.9499 0.64107 5.4512 0.94924 1.5028 0.3096 3.5862 0.77636 4.6289 1.0371 1.043 0.26223 3.1419 0.83074 4.6621 1.2637 1.5218 0.43458 4.4549 1.3228 6.5234 1.9707 2.0669 0.64945 5.3031 1.7176 7.1914 2.375 1.8868 0.65737 4.889 1.7306 6.6699 2.3848 1.7825 0.65423 5.6226 2.1332 8.5332 3.2852 2.9123 1.1536 7.0001 2.8093 9.0859 3.6816 2.0859 0.87072 5.8546 2.473 8.375 3.5586s7.5345 3.2682 11.141 4.8516c3.6078 1.5818 7.624 3.3362 8.9277 3.9004 1.3037 0.56259 3.4385 1.4535 4.7422 1.9765 1.3037 0.52307 3.5077 1.3766 4.8984 1.8965 1.3906 0.51989 3.7727 1.37 5.293 1.8867 1.5218 0.51674 4.2588 1.3926 6.084 1.9472 1.8252 0.55468 4.2432 1.2622 5.373 1.5703 1.1298 0.30809 3.6546 0.94818 5.6094 1.4238 1.9563 0.47562 4.9786 1.1488 6.7168 1.498 1.7383 0.34939 4.6533 0.88716 6.4785 1.1953 1.8252 0.30657 4.99 0.76742 7.0332 1.0234 2.0432 0.25617 4.9208 0.57661 6.3985 0.71091 1.4775 0.13264 3.7904 0.31605 5.1367 0.40624 1.3479 0.0913 4.9027 0.20956 7.9004 0.26186 3.3611 0.0599 6.9984 0.0265 9.4824-0.0898 2.2171-0.10269 5.2746-0.29368 6.7949-0.42188 1.5218-0.12961 4.223-0.41049 6.0039-0.62694 1.7825-0.21639 4.7061-0.63922 6.4981-0.93947 1.792-0.30013 4.4548-0.79925 5.918-1.1074 1.4633-0.30809 4.087-0.92279 5.8301-1.3652 1.7414-0.44084 4.5186-1.2154 6.1699-1.7226 1.6513-0.50727 4.1048-1.3095 5.4512-1.7851 1.3479-0.47407 3.5166-1.2848 4.8203-1.8047 1.3037-0.51989 3.472-1.4312 4.8184-2.0254 1.3479-0.59257 3.8018-1.7644 5.4531-2.6035 1.6513-0.84071 4.1749-2.2026 5.6114-3.0273 1.4349-0.82332 3.641-2.1628 4.9004-2.9766 1.2579-0.81383 3.1405-2.0793 4.1836-2.8125 1.043-0.73327 2.8927-2.1004 4.1094-3.039 1.2168-0.94026 3.3083-2.6507 4.6484-3.8028 1.34-1.152 3.572-3.2002 4.961-4.5528 1.389-1.3511 3.5548-3.5956 4.8144-4.9863 1.2578-1.3906 3.2284-3.7015 4.3789-5.1348 1.1488-1.4349 2.6559-3.3896 3.3496-4.3457 0.69212-0.95602 1.9687-2.8057 2.8379-4.1094 0.86912-1.3037 2.1157-3.26 2.7715-4.3457 0.65422-1.0872 1.8026-3.0882 2.5469-4.4473 0.74586-1.3606 1.7126-3.1844 2.1504-4.0566 0.43769-0.87072 1.3197-2.7449 1.9629-4.164 0.64157-1.4191 1.5965-3.6472 2.1211-4.9512 0.52621-1.3037 1.1339-2.9426 1.3535-3.6426 0.2198-0.70008 0.5765-2.124 0.79296-3.1621 0.2179-1.0382 0.50939-2.669 0.64843-3.625 0.13756-0.95606 0.497-4.1938 0.79883-7.1914 0.30165-2.9976 0.59549-5.8216 0.65237-6.2734l0.10156-0.82032-1.6406 0.0663c-0.90233 0.0379-4.0944 0.10572-7.0937 0.14855-2.9976 0.0428-6.2334 0.15499-7.1894 0.252-0.95603 0.0947-2.4437 0.30847-3.3066 0.47464-0.8628 0.16446-2.5679 0.64717-3.791 1.0722-1.2231 0.42507-3.8605 1.3542-5.8594 2.0606-1.999 0.70637-5.1991 1.7792-7.1113 2.3828-1.9121 0.60523-4.9697 1.5227-6.7949 2.041-1.8252 0.51989-4.4195 1.2289-5.7676 1.5781-1.3463 0.3475-3.8624 0.9592-5.5879 1.3574-1.7256 0.39821-4.7003 1.0409-6.6094 1.4297-1.9074 0.38869-5.4032 1.0281-7.7656 1.4199-2.3624 0.39187-6.2498 0.95719-8.6406 1.2558-2.3893 0.29861-5.9816 0.68863-7.9805 0.86719-1.999 0.18038-4.6647 0.39669-5.9258 0.48044-1.2594 0.0838-4.4951 0.23684-7.1895 0.33802-2.9788 0.11217-7.1594 0.1459-10.666 0.0841-3.1716-0.0553-7.5459-0.20653-9.7188-0.33613-2.1728-0.12771-4.8386-0.30809-5.9258-0.39843-1.0856-0.0902-2.7214-0.2376-3.6348-0.32628-0.9118-0.0902-2.8768-0.30165-4.3652-0.4707-1.4886-0.1709-3.764-0.44925-5.0566-0.62307-1.2926-0.17205-3.3103-0.46236-4.4844-0.64255-1.1741-0.18152-3.3427-0.53933-4.8203-0.7969-1.4775-0.25731-4.1432-0.7562-5.9258-1.1054-1.7809-0.34939-4.6602-0.95344-6.3985-1.3438-1.7382-0.39032-4.3362-0.99683-5.7695-1.3476-1.4333-0.35091-4.2058-1.0645-6.1621-1.586-1.9548-0.52148-5.0478-1.4078-6.873-1.9687-1.8252-0.561-4.1718-1.3078-5.2148-1.6602-1.043-0.35394-3.2491-1.1289-4.9004-1.7246-1.6514-0.59416-4.4576-1.6589-6.2402-2.3652-1.7809-0.70636-4.8761-1.999-6.875-2.8711-1.999-0.87232-4.7715-2.1224-6.1621-2.7734-1.3906-0.65263-4.4842-2.1686-6.875-3.3711-2.3893-1.2026-5.5536-2.8384-7.0312-3.6348-1.4775-0.79645-4.4724-2.4677-6.6562-3.7129-2.1839-1.2468-5.2414-3.028-6.7949-3.957-1.5534-0.93074-4.1056-2.4868-5.6699-3.457-1.5644-0.97179-4.1589-2.61-5.7676-3.6387-1.6071-1.0303-4.5646-2.9494-6.5684-4.2676-2.0053-1.3163-5.5602-3.7005-7.9004-5.2949-2.3419-1.5929-6.2124-4.2469-8.6035-5.8984-2.3893-1.6513-6.9403-4.8143-10.113-7.0332-3.1715-2.2171-8.2194-5.7351-11.219-7.8164-2.9976-2.0812-8.2614-5.6495-11.695-7.9297-3.4322-2.2803-7.7694-5.105-9.6387-6.2774-1.8678-1.1725-4.9467-3.0645-6.8398-4.207s-4.7015-2.8022-6.2422-3.6856c-1.5407-0.88493-4.4705-2.5235-6.5137-3.6406-2.0416-1.1172-5.739-3.0522-8.2168-4.3008-2.4762-1.2484-5.6766-2.8186-7.1113-3.4902-1.5035-0.64801-3.8873-1.7309-5.3653-2.3789-1.4779-0.65085-4.1722-1.7884-5.9883-2.5274-1.8161-0.73612-4.4474-1.7691-5.8457-2.2949s-4.3228-1.5558-6.4941-2.2891c-2.1742-0.73043-5.7656-1.8546-7.9824-2.4941-2.2169-0.63949-5.3444-1.4878-6.9531-1.8828-1.6058-0.39222-4.2745-1.0009-5.9258-1.3477-1.6513-0.34674-3.9964-0.8124-5.2129-1.0312-1.2193-0.22168-3.385-0.57305-4.8203-0.78905-1.4324-0.21297-3.8516-0.52887-5.375-0.70508-1.5177-0.17318-4.0789-0.42697-5.6875-0.56055-1.6071-0.13415-4.629-0.31377-6.7148-0.4004-2.0859-0.0868-5.2506-0.14438-7.0332-0.12884zm134.87 195.31c-1.6513 0.019-3.3584 0.0519-3.793 0.08-0.43454 0.0265-1.819 0.16143-3.08 0.29861-1.2594 0.13567-3.2517 0.42178-4.4258 0.63672-1.1725 0.21487-3.129 0.64771-4.3457 0.95898-1.2168 0.31301-3.2428 0.91941-4.5039 1.3477-1.2594 0.42825-3.1365 1.1338-4.1699 1.5684-1.0334 0.43455-2.7405 1.2195-3.793 1.7441-1.0524 0.52303-2.9795 1.5878-4.2832 2.3652-1.3037 0.77746-3.2116 2.0044-4.2422 2.7266-1.0303 0.72218-2.8083 2.0531-3.9492 2.957-1.1409 0.90388-3.1814 2.7459-4.5371 4.0938-1.3559 1.3464-2.9454 3.0532-3.5332 3.791-0.58787 0.73798-1.6387 2.1973-2.334 3.2402-0.6953 1.043-1.7765 2.9265-2.4023 4.1875-0.62417 1.2594-1.3625 2.9307-1.6406 3.7129-0.27664 0.78224-0.68158 2.0974-0.89645 2.9238-0.21487 0.82491-0.51629 2.1775-0.66798 3.0039-0.20539 1.1188-0.2755 2.3437-0.2755 4.8184-0.002 2.7781 0.0542 3.6237 0.34977 5.1914 0.19592 1.0303 0.61095 2.666 0.92382 3.6348 0.31301 0.96868 0.8631 2.4373 1.2266 3.2637 0.3619 0.8249 1.0671 2.194 1.5664 3.041 0.49935 0.84859 1.4546 2.2705 2.123 3.1602 0.66843 0.89122 2.0348 2.4441 3.0352 3.4492 1.0018 1.0066 2.4973 2.366 3.3222 3.0234 0.8249 0.65737 2.391 1.7776 3.4766 2.4903 1.0872 0.71114 3.3984 1.9952 5.1367 2.8515 1.7382 0.85492 4.4768 2.1247 6.084 2.8184 1.6087 0.69216 4.0605 1.7184 5.4512 2.2793 1.3906 0.561 3.8087 1.502 5.3731 2.0898 1.5644 0.58787 4.7307 1.6965 7.0332 2.4629 2.304 0.76643 5.7874 1.8535 7.7422 2.416 1.9564 0.5626 4.9785 1.3806 6.7168 1.8183 1.7383 0.43773 4.263 1.0462 5.6094 1.3496 1.3479 0.30202 3.9424 0.83437 5.7676 1.1836 1.8252 0.34939 4.2432 0.78276 5.373 0.96288 1.1298 0.18152 3.2983 0.50075 4.8203 0.71095 1.5202 0.20843 4.145 0.52652 5.8282 0.70508 1.6829 0.17849 4.4912 0.43095 6.2402 0.56055 1.7493 0.1296 4.9223 0.30581 7.0508 0.39256 2.1302 0.0853 5.2949 0.15613 7.0332 0.15613s4.9385-0.0712 7.1114-0.15803c2.1728-0.0853 5.4423-0.26564 7.2676-0.39847 1.8252-0.13111 4.9542-0.41901 6.9531-0.63865 1.999-0.21979 5.0942-0.61155 6.875-0.86916 1.7824-0.25617 4.0917-0.61008 5.1347-0.78709 1.043-0.17545 3.5324-0.64168 5.5313-1.0352 1.999-0.3935 5.4432-1.1379 7.6524-1.6562 2.2107-0.51829 5.7654-1.3992 7.9004-1.957 2.1365-0.55782 5.9109-1.5917 8.3886-2.2949 2.4778-0.70478 6.389-1.8523 8.6914-2.5508 2.3023-0.6969 6.3203-1.9427 8.9277-2.7676 2.6074-0.82332 6.8038-2.1736 9.3242-3 2.5204-0.8265 7.6736-2.5226 11.455-3.7695 3.7814-1.2468 9.5048-3.1215 12.721-4.166 3.2159-1.0445 8.0179-2.5891 10.668-3.4297 2.6516-0.84071 4.8392-1.5436 4.8614-1.5625 0.0227-0.0189-0.79489-0.77776-1.8125-1.6816-1.0193-0.90547-3.5966-3.3462-5.7285-5.4258-2.1333-2.0812-4.3237-4.1486-4.8672-4.5976-0.5452-0.44879-1.3394-1.0079-1.7676-1.2402-0.54838-0.29861-1.1693-0.46721-2.0938-0.56835-0.72217-0.0788-2.3087-0.22472-3.5254-0.32438-1.2168-0.0982-3.8812-0.38779-5.9199-0.64062-2.0385-0.25428-5.2386-0.71566-7.1113-1.0254-1.8726-0.30961-4.9329-0.87307-6.8008-1.2539-1.8678-0.37926-4.6148-0.97698-6.1035-1.3262-1.487-0.35091-3.6911-0.8941-4.8984-1.207-1.2058-0.31301-3.5778-0.96299-5.2734-1.4434-1.694-0.4804-4.8604-1.4302-7.0332-2.1113-2.1728-0.68268-5.6921-1.841-7.8223-2.5742-2.1286-0.73483-5.6832-2.0114-7.9004-2.8379-2.2155-0.82646-5.6652-2.1415-7.6641-2.9238-1.999-0.78061-6.0528-2.4182-9.0078-3.6367-2.955-1.2184-11.522-4.8464-19.041-8.0605-7.5172-3.2159-15.814-6.7426-18.436-7.836-2.6216-1.0935-6.7468-2.7764-9.166-3.7402-2.4194-0.96394-6.0859-2.3835-8.1465-3.1563-2.0606-0.77272-4.7619-1.7199-6.0039-2.1055-1.2421-0.384-3.3964-0.98786-4.7871-1.3418-1.3906-0.35394-3.666-0.85374-5.0566-1.1113-1.3906-0.25617-3.4523-0.57968-4.582-0.71876-1.1298-0.13907-3.0134-0.32135-4.1875-0.40821-1.1725-0.0853-3.4854-0.14476-5.1367-0.12884z"
     fill="url(#gradient)" /></svg>